<svg width="450" height="138" xmlns="http://www.w3.org/2000/svg" xmlns:xlink="http://www.w3.org/1999/xlink" xml:space="preserve" overflow="hidden"><defs><clipPath id="clip0"><rect x="3762" y="160" width="450" height="138"/></clipPath></defs><g clip-path="url(#clip0)" transform="translate(-3762 -160)"><path d="M3832.24 251.585C3829.76 251.585 3829.76 251.585 3829.76 251.585 3829.76 241.961 3829.76 232.338 3829.76 222.714 3829.6 220.857 3829.27 219.169 3826.79 219 3825.14 219 3823.66 220.182 3823.66 222.714 3823.49 231.325 3823.33 239.935 3823.16 248.546 3823 253.779 3825.47 258 3830.92 258 3836.53 258 3839 253.779 3838.83 248.546 3838.67 239.935 3838.51 231.325 3838.18 222.714 3838.18 220.182 3836.86 219 3835.04 219 3832.57 219.169 3832.24 220.857 3832.24 222.714 3832.24 232.338 3832.24 241.961 3832.24 251.585Z" fill="#D42700" fill-rule="evenodd"/><path d="M3778.33 205.846C3778.15 206.019 3777.62 205.673 3777.08 205.846 3776.54 206.192 3776.36 206.539 3776.18 206.712 3776 207.058 3776.18 207.923 3777.26 208.615 3778.15 209.308 3781.74 210 3782.46 209.827 3783.18 209.654 3783.72 208.269 3783.18 208.269 3782.46 208.096 3781.03 207.75 3780.67 207.058 3780.13 206.365 3779.41 205.154 3779.59 202.731 3779.59 200.308 3780.49 198.923 3780.85 198.577 3781.21 198.404 3781.74 198.75 3781.74 198.923 3781.92 199.096 3782.64 201.173 3782.82 201.346 3782.82 201.346 3782.82 202.039 3782.28 201.692 3781.92 201.519 3781.38 201.346 3781.03 201.692 3780.49 201.865 3780.13 202.385 3780.67 202.904 3781.21 203.423 3781.74 203.25 3782.1 203.25 3782.28 203.077 3783 202.904 3782.82 203.25 3782.64 203.596 3782.64 204.808 3782.64 204.808 3782.64 204.808 3782.1 205.5 3782.64 205.846 3783.18 206.192 3784.08 206.192 3784.08 205.846 3784.08 205.5 3784.08 204.462 3784.08 203.769 3784.26 203.25 3784.44 202.212 3784.79 201.865 3785.33 201.692 3785.69 201.865 3786.41 201.519 3786.95 201 3787.85 199.962 3787.85 199.269 3787.85 198.75 3788.38 195.462 3788.74 194.942 3789.1 194.423 3790 194.077 3789.1 193.212 3788.2 192.346 3784.62 192 3782.82 193.385 3781.21 194.596 3779.77 196.5 3778.87 198.923 3777.97 201.346 3777.79 202.731 3778.15 203.942 3778.51 205.327 3778.69 205.673 3778.33 205.846 3778.33 205.846 3778.33 205.846 3778.33 205.846ZM3783.9 201.346C3783.9 201.346 3783.72 201.346 3783.54 201.692 3783.54 201.865 3783.54 199.615 3783.54 198.75 3783.54 197.885 3782.82 197.885 3782.28 198.058 3781.56 198.058 3781.56 198.058 3781.21 198.058 3781.56 197.366 3781.92 196.846 3782.46 195.981 3783.18 194.942 3784.26 193.904 3785.69 193.904 3786.41 193.731 3786.05 196.154 3785.87 196.846 3785.87 197.366 3785.87 199.442 3785.69 199.789 3785.69 200.308 3785.33 200.135 3784.62 200.308 3784.08 200.481 3783.9 201.346 3783.9 201.346Z" fill="#D42700" fill-rule="evenodd"/><path d="M3804.67 175.353C3804.17 175.529 3804 175.882 3804.33 176.765 3804.83 177.471 3805.33 177.294 3805.67 178.882 3806.17 180.294 3807 183.294 3807.17 183.824 3807.33 184.353 3807.33 185.235 3807.33 185.588 3807.33 185.941 3807.5 187 3808.17 186.824 3809 186.647 3808.67 185.765 3808.5 185.235 3808.5 184.706 3807.5 180.824 3807.17 180.294 3807 179.765 3806.5 178.176 3806.33 177.647 3806.33 177.118 3806.33 176.588 3805.83 176.059 3805.5 175.706 3805.17 175 3804.67 175.353Z" fill="#D42700" fill-rule="evenodd"/><path d="M3807.76 175.154C3807.38 175.308 3807 175.308 3807 175.769 3807 176.231 3807.57 176.692 3807.76 177 3808.14 177.308 3808.52 177.615 3808.71 177.923 3808.71 178.385 3809.86 180.692 3810.24 180.846 3810.62 181 3811 180.539 3811 179.923 3811 179.308 3810.81 178.539 3810.62 178.231 3810.24 178.077 3810.05 177.615 3810.05 177.154 3810.05 176.538 3809.48 175.923 3809.1 175.462 3808.52 175 3807.95 175.154 3807.76 175.154Z" fill="#D42700" fill-rule="evenodd"/><path d="M3810.19 169C3809.85 169 3809.34 169.165 3809.17 169.495 3809 169.824 3809.17 170.319 3809.68 170.648 3810.02 171.143 3810.36 171.637 3810.36 171.967 3810.53 172.297 3812.06 175.593 3812.4 176.418 3812.74 177.242 3813.43 179.055 3813.94 180.044 3814.45 181.198 3815.3 183.176 3815.98 183.67 3816.66 184 3817 182.846 3816.49 182.352 3816.15 181.857 3816.15 182.022 3815.47 181.033 3814.96 180.044 3812.57 174.604 3812.4 174.275 3812.23 173.78 3811.72 172.132 3811.72 171.637 3811.72 170.978 3812.06 170.319 3811.72 169.824 3811.55 169.33 3810.36 169 3810.19 169Z" fill="#D42700" fill-rule="evenodd"/><path d="M3854 182.618C3854.14 183.353 3854.43 185.706 3855.71 185.853 3856.86 186 3857 184.529 3856.71 184.088 3856.43 183.5 3854.86 181.735 3854.86 181.735 3854.14 181 3854 182.03 3854 182.618Z" fill="#D42700" fill-rule="evenodd"/><path d="M3885.43 201.173C3885.43 201.173 3885.1 201.517 3884.93 201.69 3884.93 201.862 3884.59 202.379 3884.42 202.379 3884.25 202.379 3883.24 202.724 3882.9 202.724 3882.74 202.724 3881.89 202.897 3881.89 203.069 3881.72 203.414 3881.22 203.759 3881.22 203.759 3881.22 203.759 3881.22 204.104 3881.55 204.104 3881.89 204.104 3881.89 204.448 3881.89 204.448 3881.89 204.448 3881.89 205.138 3881.72 204.966 3881.55 204.793 3881.55 204.966 3881.22 204.621 3881.05 204.448 3879.02 202.379 3879.02 202.379 3879.02 202.379 3878.52 201.69 3878.35 201.517 3878.35 201.345 3878.18 201 3877.84 201 3877.51 201 3877.17 201.173 3877 201.517 3877 201.69 3877 202.207 3877.34 202.724 3877.84 203.241 3878.69 203.586 3879.19 203.931 3880.04 204.448 3880.71 205.138 3881.22 205.655 3881.72 206.345 3882.9 207.552 3883.24 208.241 3883.41 208.931 3883.24 209.104 3882.9 209.104 3882.74 209.104 3882.23 208.759 3882.06 208.586 3881.89 208.414 3881.72 208.586 3881.72 208.586 3881.72 208.586 3881.72 208.759 3882.23 209.448 3882.57 209.966 3882.74 210.828 3883.07 211 3883.24 211 3884.59 210.138 3884.25 209.276 3884.08 208.414 3883.58 207.552 3883.41 207.379 3883.24 207.207 3883.41 206.862 3883.75 207.035 3884.08 207.207 3884.59 207.552 3885.27 207.552 3885.94 207.552 3886.11 207.724 3886.28 207.552 3886.61 207.207 3886.95 206.69 3886.95 206.517 3887.12 206.345 3887.46 206.345 3887.8 206.69 3888.13 207.207 3888.64 207.552 3888.98 207.207 3889.14 206.69 3888.81 206.172 3889.14 206.172 3889.48 206 3889.65 205.655 3889.82 206 3889.99 206.172 3890.16 206.517 3890.33 206.345 3890.33 206.172 3890.66 206 3890.83 205.655 3891 205.31 3890.83 204.793 3890.66 204.793 3890.33 204.966 3889.82 204.966 3889.65 205.138 3889.48 205.138 3889.14 205.138 3888.98 205.483 3888.81 205.655 3888.81 205.655 3888.64 205.655 3888.47 205.655 3888.13 205.828 3887.96 205.483 3887.63 205.31 3887.63 204.966 3887.29 204.966 3887.12 204.966 3886.45 205.138 3886.45 205.31 3886.28 205.483 3886.61 205.828 3886.11 205.828 3885.6 205.828 3884.25 205.655 3884.08 205.828 3883.92 205.828 3884.08 206.172 3883.92 206.345 3883.58 206.345 3883.24 206.69 3883.07 206.517 3882.9 206.345 3882.4 205.828 3882.4 205.828 3882.4 205.828 3882.06 205.31 3882.74 205.31 3883.24 205.31 3884.08 205.138 3884.25 205.138 3884.42 205.138 3884.76 205.138 3884.76 204.966 3884.59 204.621 3885.1 204.793 3884.93 204.448 3884.76 204.276 3884.59 204.104 3884.93 204.104 3885.43 203.931 3886.78 204.104 3887.63 203.931 3888.3 203.759 3888.3 203.414 3888.47 203.241 3888.47 202.897 3887.96 202.379 3887.63 202.379 3887.46 202.552 3887.12 203.069 3886.78 203.241 3886.45 203.241 3885.27 203.586 3885.27 203.759 3885.1 203.759 3884.25 203.931 3884.08 203.931 3883.92 203.931 3883.07 203.241 3883.75 203.241 3884.42 203.069 3885.27 202.897 3885.6 202.724 3885.94 202.379 3886.28 201.517 3886.11 201.345 3886.11 201.173 3885.6 201 3885.43 201.173Z" fill="#D42700" fill-rule="evenodd"/><path d="M3879.61 204.921C3879.24 205.105 3878.88 205.474 3879.06 205.658 3879.06 206.026 3879.8 206.21 3879.8 206.579 3879.98 207.132 3878.88 207.316 3878.51 207.316 3878.51 207.316 3877.22 206.026 3877.04 205.658 3876.86 205.474 3876.49 204 3875.94 204.368 3875.57 204.552 3875.2 205.289 3875.39 205.842 3875.76 206.21 3876.12 206.395 3876.67 206.947 3877.04 207.316 3877.59 207.868 3877.59 208.053 3877.59 208.237 3877.22 208.605 3876.86 208.789 3876.31 208.974 3875.02 208.974 3874.84 208.789 3874.65 208.421 3874.47 207.868 3874.47 207.5 3874.65 206.947 3874.65 206.026 3874.1 206.395 3873.73 206.579 3873.92 206.947 3873.55 207.316 3873.18 207.5 3873 208.421 3873.37 208.789 3873.73 209.158 3874.47 209.526 3875.57 209.526 3876.49 209.526 3877.04 209.342 3877.22 209.342 3877.59 209.342 3878.14 208.974 3878.14 209.342 3878.14 209.526 3878.33 211 3878.88 210.816 3879.43 210.816 3880.16 210.447 3879.98 210.079 3879.98 209.526 3879.24 208.421 3879.24 208.421 3879.24 208.421 3879.24 207.684 3879.43 207.684 3879.8 207.868 3880.35 207.868 3880.71 208.053 3881.08 208.053 3882 207.684 3881.82 207.316 3881.63 206.763 3880.71 205.842 3880.53 205.474 3880.35 205.105 3879.98 204.737 3879.61 204.921Z" fill="#D42700" fill-rule="evenodd"/><path d="M3856.12 174.265C3856.12 174.265 3855.44 175.073 3854.94 176.044 3854.77 176.044 3854.77 176.044 3854.77 176.044 3854.43 176.044 3853.25 176.044 3852.91 175.72 3852.4 175.559 3851.73 175.073 3851.56 175.073 3851.22 174.912 3850.88 175.073 3850.71 175.559 3850.55 176.044 3850.55 176.529 3851.22 177.176 3851.9 177.985 3852.06 177.823 3852.74 177.662 3853.08 177.662 3853.42 177.5 3853.75 177.5 3853.42 177.823 3853.25 178.147 3853.25 178.147 3852.91 178.47 3851.9 179.603 3851.22 180.088 3850.55 180.412 3848.86 181.22 3848.86 181.22 3849.03 181.382 3848.52 181.382 3848.52 180.897 3848.35 180.412 3848.01 180.735 3847.51 181.059 3847 181.382 3847.34 182.029 3847.34 182.353 3847.17 182.676 3847.17 183 3848.01 182.838 3848.69 182.676 3849.36 182.029 3850.21 181.544 3851.05 181.22 3852.4 180.573 3853.08 179.926 3853.58 179.441 3854.6 178.147 3855.1 177.338 3855.95 177.338 3857.3 177.338 3857.64 177.338 3857.97 177.338 3858.31 177.662 3858.82 177.5 3859.32 177.5 3860 177.338 3859.66 176.853 3859.32 176.368 3858.99 175.882 3858.48 176.044 3857.97 176.206 3857.3 176.206 3856.96 176.206 3856.96 176.206 3856.45 176.206 3856.12 176.044 3856.29 175.72 3856.62 175.397 3856.62 175.235 3856.96 174.912 3857.13 174.75 3857.3 174.588 3857.47 174.588 3857.97 174.265 3858.14 173.779 3858.31 173.456 3858.14 172.485 3857.97 172.323 3857.64 172 3856.96 172.162 3856.79 172.647 3856.45 173.132 3856.29 174.265 3856.12 174.265Z" fill="#D42700" fill-rule="evenodd"/><path d="M3831 196.695C3830.66 196.695 3830.49 196.695 3830.32 196.695 3830.15 195.519 3829.47 194.008 3827.93 194.008 3826.74 194.008 3826.06 194.008 3824.87 194.008 3823.84 194.008 3822.99 193.672 3822.48 193 3822.82 194.511 3823.33 196.023 3825.04 196.359 3825.72 196.359 3826.57 196.359 3827.25 196.359 3828.44 196.359 3828.96 196.527 3829.47 196.863 3826.57 197.031 3823.84 198.039 3822.99 200.558 3822.14 202.909 3822.48 208.452 3821.97 211.139 3820.78 211.139 3819.41 211.139 3818.22 211.139 3815.16 210.971 3814.13 213.659 3813.96 216.85 3813.45 226.256 3812.77 235.494 3812.26 244.899 3811.92 252.122 3810.39 255.481 3808 258 3809.7 258 3811.41 258 3813.11 258 3813.96 257.328 3814.47 256.489 3815.67 254.641 3815.16 256.321 3814.81 257.16 3814.3 258 3815.84 258 3817.2 258 3818.73 258 3819.59 256.321 3819.93 254.305 3819.93 252.29 3820.44 241.876 3820.95 231.463 3821.29 221.049 3821.46 219.369 3821.97 218.362 3823.33 218.362 3825.55 218.362 3827.93 218.362 3830.15 218.362 3830.15 213.827 3830.15 209.124 3830.15 204.589 3828.61 204.253 3827.25 202.741 3827.25 201.062 3827.25 199.046 3828.96 197.535 3831 197.535 3833.04 197.535 3834.58 199.046 3834.58 201.062 3834.58 202.741 3833.39 204.253 3831.68 204.589 3831.68 209.124 3831.68 213.827 3831.68 218.362 3834.07 218.362 3836.28 218.362 3838.67 218.362 3840.03 218.362 3840.54 219.369 3840.54 221.049 3841.05 231.463 3841.56 241.876 3842.07 252.29 3842.07 254.305 3842.41 256.321 3843.27 258 3844.63 258 3846.16 258 3847.7 258 3847.19 257.16 3846.67 256.321 3846.16 254.641 3847.53 256.489 3848.04 257.328 3848.72 258 3850.42 258 3852.3 258 3854 258 3851.61 255.481 3850.08 252.122 3849.57 244.899 3849.23 235.494 3848.55 226.256 3848.04 216.85 3847.87 213.659 3846.84 210.971 3843.61 211.139 3842.41 211.139 3841.22 211.139 3840.03 211.139 3839.52 208.452 3839.69 202.909 3839.01 200.558 3837.99 198.039 3835.43 197.031 3832.53 196.863 3832.87 196.527 3833.56 196.359 3834.75 196.359 3835.43 196.359 3836.28 196.359 3836.96 196.359 3838.67 196.023 3839.18 194.511 3839.35 193 3838.84 193.672 3838.16 194.008 3836.96 194.008 3835.94 194.008 3835.09 194.008 3834.07 194.008 3832.53 194.008 3831.85 195.519 3831.68 196.695 3831.51 196.695 3831.17 196.695 3831 196.695Z" fill="#D42700" fill-rule="evenodd"/><path d="M3830.91 160C3868.95 160 3900 191.046 3900 228.915 3900 266.954 3868.95 298 3830.91 298 3792.88 298 3762 266.954 3762 228.915 3762 191.046 3792.88 160 3830.91 160 3830.91 160 3830.91 160 3830.91 160ZM3830.91 162.388C3794.24 162.388 3764.39 192.24 3764.39 228.915 3764.39 265.59 3794.24 295.612 3830.91 295.612 3867.59 295.612 3897.61 265.59 3897.61 228.915 3897.61 192.24 3867.59 162.388 3830.91 162.388Z" fill="#D42700" fill-rule="evenodd"/><path d="M3771 227.016C3774.22 227.016 3774.22 227.016 3774.22 227.016 3774.22 227.355 3774.22 227.355 3774.22 227.355 3773.54 227.524 3772.86 227.863 3772.36 228.371 3771.85 229.048 3771.68 229.726 3771.68 230.403 3771.68 230.911 3771.85 231.419 3772.02 231.589 3772.19 231.927 3772.53 232.097 3772.86 232.097 3773.37 232.097 3774.05 231.419 3774.56 229.895 3774.56 229.895 3774.56 229.895 3774.56 229.895 3774.73 229.726 3774.73 229.726 3774.73 229.556 3775.24 228.54 3775.58 227.863 3776.08 227.524 3776.25 227.355 3776.42 227.185 3776.76 227.185 3776.93 227.016 3777.1 227.016 3777.44 227.016 3778.29 227.016 3778.97 227.355 3779.47 227.863 3779.98 228.54 3780.32 229.218 3780.32 230.234 3780.32 230.742 3780.15 231.25 3779.98 231.927 3779.81 232.435 3779.64 232.774 3779.64 232.774 3779.64 232.943 3779.81 232.943 3779.81 233.113 3779.98 233.113 3779.98 233.113 3780.32 233.113 3780.32 233.451 3780.32 233.451 3780.32 233.451 3777.44 233.621 3777.44 233.621 3777.44 233.621 3777.44 233.282 3777.44 233.282 3777.44 233.282 3778.12 233.113 3778.63 232.774 3779.14 232.266 3779.47 231.758 3779.64 231.081 3779.64 230.403 3779.64 230.064 3779.64 229.726 3779.31 229.387 3779.14 229.218 3778.97 229.048 3778.63 229.048 3778.12 229.048 3777.61 229.556 3777.27 230.742 3777.1 230.911 3777.1 230.911 3777.1 230.911 3776.76 231.589 3776.59 232.266 3776.42 232.605 3776.25 232.774 3776.08 233.113 3775.92 233.282 3775.58 233.451 3775.41 233.621 3775.07 233.79 3774.73 233.96 3774.39 233.96 3774.05 233.96 3773.2 233.96 3772.53 233.79 3772.02 233.113 3771.34 232.435 3771.17 231.758 3771.17 230.742 3771.17 230.234 3771.17 229.556 3771.34 228.879 3771.51 228.371 3771.68 228.032 3771.68 228.032 3771.68 227.863 3771.51 227.693 3771.51 227.524 3771.34 227.524 3771.17 227.524 3771 227.524 3771 227.016 3771 227.016 3771 227.016ZM3774.05 240.903C3773.71 241.072 3773.37 241.242 3773.2 241.411 3773.03 241.581 3773.03 241.919 3773.03 242.258 3772.69 242.258 3772.69 242.258 3772.69 242.258 3771.85 237.516 3771.85 237.516 3771.85 237.516 3772.19 237.347 3772.19 237.347 3772.19 237.347 3772.36 237.855 3772.36 238.024 3772.69 238.193 3772.86 238.363 3773.2 238.363 3773.71 238.363 3779.14 237.347 3779.14 237.347 3779.14 237.347 3779.47 237.177 3779.81 237.177 3779.98 236.839 3780.15 236.669 3780.15 236.331 3780.15 235.992 3780.49 235.992 3780.49 235.992 3780.49 235.992 3781.34 240.903 3781.34 240.903 3781.34 240.903 3781 240.903 3781 240.903 3781 240.903 3781 240.395 3780.83 240.226 3780.49 240.056 3780.32 239.887 3779.98 239.887 3779.64 240.056 3774.05 240.903 3774.05 240.903 3774.05 240.903ZM3777.95 252.758C3777.27 252.589 3776.59 252.25 3776.08 251.742 3775.58 251.234 3775.07 250.556 3774.9 249.879 3774.73 249.202 3774.56 248.693 3774.73 248.185 3774.73 247.677 3774.9 247.169 3775.07 246.661 3775.41 245.984 3775.75 245.645 3776.25 245.137 3776.76 244.798 3777.27 244.46 3777.95 244.29 3779.31 243.782 3780.32 243.952 3781.51 244.46 3782.53 244.968 3783.2 245.814 3783.71 247.169 3783.88 247.677 3783.88 248.185 3783.88 248.863 3783.88 249.371 3783.88 249.71 3783.88 249.71 3783.88 249.879 3784.05 249.879 3784.05 249.879 3784.22 250.048 3784.39 250.048 3784.56 250.048 3784.56 250.387 3784.56 250.387 3784.56 250.387 3782.02 251.234 3782.02 251.234 3782.02 251.234 3781.85 250.895 3781.85 250.895 3781.85 250.895 3782.53 250.556 3782.86 250.048 3783.2 249.54 3783.37 249.202 3783.37 248.524 3783.2 248.016 3783.03 247.339 3782.53 246.831 3781.85 246.661 3781 246.492 3780.15 246.661 3778.97 247 3777.78 247.339 3776.76 247.847 3776.25 248.355 3775.75 249.032 3775.58 249.71 3775.92 250.387 3776.08 250.726 3776.25 251.234 3776.76 251.573 3777.1 251.911 3777.61 252.081 3778.12 252.25 3777.95 252.758 3777.95 252.758 3777.95 252.758ZM3781.17 258.685C3783.37 257.331 3783.37 257.331 3783.37 257.331 3784.73 259.532 3784.73 259.532 3784.73 259.532 3782.53 261.056 3782.53 261.056 3782.53 261.056 3782.19 261.226 3781.85 261.226 3781.68 261.226 3781.34 261.226 3781.17 261.056 3781 260.718 3780.66 260.887 3780.66 260.887 3780.66 260.887 3783.2 265.121 3783.2 265.121 3783.2 265.121 3783.54 264.952 3783.54 264.952 3783.54 264.952 3783.37 264.613 3783.2 264.274 3783.37 263.935 3783.37 263.766 3783.71 263.597 3784.05 263.258 3788.8 260.379 3788.8 260.379 3788.8 260.379 3789.14 260.04 3789.47 260.04 3789.64 260.04 3789.98 260.04 3790.15 260.21 3790.32 260.548 3790.66 260.379 3790.66 260.379 3790.66 260.379 3788.12 256.314 3788.12 256.314 3788.12 256.314 3787.78 256.484 3787.78 256.484 3787.78 256.484 3787.95 256.823 3788.12 256.992 3787.95 257.331 3787.95 257.5 3787.61 257.839 3787.27 258.008 3785.41 259.194 3785.41 259.194 3785.41 259.194 3783.88 256.992 3783.88 256.992 3783.88 256.992 3785.92 255.806 3785.92 255.806 3785.92 255.806 3786.25 255.468 3786.59 255.468 3786.76 255.468 3787.1 255.468 3787.27 255.637 3787.61 255.976 3787.78 255.806 3787.78 255.806 3787.78 255.806 3785.24 251.742 3785.24 251.742 3785.24 251.742 3784.9 251.911 3784.9 251.911 3784.9 251.911 3785.07 252.25 3785.24 252.589 3785.07 252.758 3785.07 252.927 3784.9 253.266 3784.39 253.435 3779.81 256.484 3779.81 256.484 3779.81 256.484 3779.31 256.653 3778.97 256.823 3778.8 256.653 3778.46 256.653 3778.29 256.484 3778.12 256.145 3777.78 256.314 3777.78 256.314 3777.78 256.314 3780.49 260.548 3780.49 260.548 3780.49 260.548 3780.66 260.379 3780.66 260.379 3780.66 260.379 3780.49 260.04 3780.49 259.702 3780.49 259.363 3780.49 259.194 3780.83 259.024 3781.17 258.685 3781.17 258.685 3781.17 258.685 3781.17 258.685ZM3792.86 270.879C3795.75 268.169 3795.75 268.169 3795.75 268.169 3796.08 267.831 3796.25 267.492 3796.25 267.323 3796.42 266.984 3796.25 266.815 3795.92 266.476 3796.25 266.306 3796.25 266.306 3796.25 266.306 3798.12 268.339 3798.12 268.339 3798.12 268.339 3797.95 268.508 3797.95 268.508 3797.95 268.508 3797.61 268.169 3797.27 268 3797.1 268 3796.76 268 3796.59 268.169 3796.25 268.508 3793.37 271.218 3793.37 271.218 3793.37 271.218 3792.86 271.726 3792.53 271.895 3792.19 272.065 3791.85 272.234 3791.51 272.403 3791.17 272.403 3790.66 272.403 3790.32 272.234 3789.81 272.065 3789.31 271.726 3788.8 271.387 3788.46 270.879 3787.61 270.032 3787.27 269.355 3787.27 268.508 3787.27 267.661 3787.61 266.984 3788.46 266.306 3791.51 263.427 3791.51 263.427 3791.51 263.427 3791.68 263.089 3791.85 262.75 3792.02 262.581 3792.02 262.411 3791.85 262.073 3791.51 261.734 3791.85 261.564 3791.85 261.564 3791.85 261.564 3795.24 265.121 3795.24 265.121 3795.24 265.121 3794.9 265.29 3794.9 265.29 3794.9 265.29 3794.73 265.121 3794.39 264.952 3794.22 264.952 3793.88 264.952 3793.54 265.121 3793.2 265.46 3789.81 268.677 3789.81 268.677 3789.81 268.677 3789.31 269.016 3788.97 269.524 3788.97 269.863 3788.97 270.371 3789.14 270.71 3789.47 271.218 3789.98 271.726 3790.49 271.895 3791 271.895 3791.68 271.726 3792.19 271.387 3792.86 270.879 3792.86 270.879 3792.86 270.879 3792.86 270.879ZM3795.75 275.282C3796.93 274.605 3796.93 274.605 3796.93 274.605 3798.8 275.96 3798.8 275.96 3798.8 275.96 3798.29 277.484 3798.29 277.484 3798.29 277.484 3798.29 277.653 3798.29 277.653 3798.12 277.653 3798.12 277.823 3798.12 277.823 3798.12 277.823 3797.95 277.992 3797.78 278.161 3797.78 278.161 3797.61 277.992 3797.27 277.992 3796.93 277.653 3796.76 277.992 3796.76 277.992 3796.76 277.992 3800.49 280.532 3800.49 280.532 3800.49 280.532 3800.66 280.363 3800.66 280.363 3800.66 280.363 3800.49 280.194 3800.49 280.194 3800.32 280.024 3800.32 279.855 3800.32 279.516 3800.49 279.347 3802.53 271.387 3802.53 271.387 3802.53 271.387 3801.68 270.71 3801.68 270.71 3801.68 270.71 3794.9 275.113 3794.9 275.113 3794.9 275.113 3794.56 275.282 3794.39 275.282 3794.22 275.452 3793.88 275.452 3793.71 275.282 3793.54 275.282 3793.37 275.452 3793.37 275.452 3793.37 275.452 3795.58 276.976 3795.58 276.976 3795.58 276.976 3795.75 276.806 3795.75 276.806 3795.75 276.806 3795.58 276.637 3795.58 276.637 3795.58 276.637 3795.41 276.468 3795.24 276.298 3795.24 276.129 3795.07 275.96 3795.24 275.79 3795.24 275.621 3795.41 275.621 3795.41 275.621 3795.41 275.452 3795.58 275.452 3795.58 275.452 3795.75 275.282 3795.75 275.282 3795.75 275.282 3795.75 275.282ZM3797.44 274.266C3799.64 272.742 3799.64 272.742 3799.64 272.742 3798.8 275.282 3798.8 275.282 3798.8 275.282 3797.44 274.266 3797.44 274.266 3797.44 274.266ZM3807.1 275.79C3807.27 275.452 3807.27 275.113 3807.27 274.774 3807.1 274.605 3806.93 274.436 3806.59 274.266 3806.76 273.927 3806.76 273.927 3806.76 273.927 3809.98 275.452 3809.98 275.452 3809.98 275.452 3811.51 281.718 3811.51 281.718 3811.51 281.718 3813.03 278.669 3813.03 278.669 3813.03 278.669 3813.2 278.161 3813.37 277.823 3813.2 277.653 3813.2 277.484 3813.03 277.145 3812.53 276.976 3812.69 276.637 3812.69 276.637 3812.69 276.637 3815.24 277.823 3815.24 277.823 3815.24 277.823 3815.07 278.161 3815.07 278.161 3815.07 278.161 3814.73 277.992 3814.39 277.992 3814.22 278.161 3814.05 278.161 3813.71 278.5 3813.54 278.839 3810.66 285.274 3810.66 285.274 3810.66 285.274 3809.64 284.936 3809.64 284.936 3809.64 284.936 3807.44 276.298 3807.44 276.298 3807.44 276.298 3805.24 281.04 3805.24 281.04 3805.24 281.04 3805.07 281.548 3804.9 281.887 3805.07 282.057 3805.07 282.226 3805.41 282.565 3805.75 282.734 3805.58 283.073 3805.58 283.073 3805.58 283.073 3803.03 281.718 3803.03 281.718 3803.03 281.718 3803.2 281.548 3803.2 281.548 3803.2 281.548 3803.54 281.718 3803.88 281.718 3804.05 281.548 3804.22 281.548 3804.56 281.21 3804.73 280.871 3807.1 275.79 3807.1 275.79 3807.1 275.79ZM3828.63 285.613C3828.97 281.718 3828.97 281.718 3828.97 281.718 3828.97 281.21 3828.97 280.871 3828.8 280.702 3828.63 280.532 3828.46 280.363 3827.95 280.363 3828.12 280.024 3828.12 280.024 3828.12 280.024 3830.83 280.194 3830.83 280.194 3830.83 280.194 3830.83 280.532 3830.83 280.532 3830.83 280.532 3830.49 280.532 3830.15 280.702 3829.98 280.871 3829.81 281.04 3829.64 281.379 3829.64 281.718 3829.31 285.613 3829.31 285.613 3829.31 285.613 3829.14 286.29 3829.14 286.798 3828.97 287.137 3828.8 287.476 3828.63 287.645 3828.46 287.984 3828.12 288.323 3827.61 288.492 3827.1 288.661 3826.59 288.831 3826.08 288.831 3825.41 288.831 3824.22 288.661 3823.37 288.323 3822.86 287.815 3822.36 287.137 3822.19 286.29 3822.19 285.274 3822.53 281.21 3822.53 281.21 3822.53 281.21 3822.69 280.702 3822.53 280.363 3822.36 280.194 3822.36 280.024 3822.02 279.855 3821.68 279.855 3821.68 279.516 3821.68 279.516 3821.68 279.516 3826.59 279.855 3826.59 279.855 3826.59 279.855 3826.59 280.194 3826.59 280.194 3826.59 280.194 3826.08 280.194 3825.75 280.363 3825.58 280.532 3825.41 280.702 3825.41 280.871 3825.24 281.379 3824.9 286.121 3824.9 286.121 3824.9 286.121 3824.9 286.798 3824.9 287.307 3825.24 287.645 3825.41 287.984 3825.75 288.153 3826.42 288.153 3827.1 288.153 3827.61 287.984 3827.95 287.645 3828.29 287.137 3828.63 286.629 3828.63 285.613 3828.63 285.613 3828.63 285.613 3828.63 285.613ZM3833.37 281.718C3833.37 281.379 3833.2 281.04 3833.03 280.871 3832.86 280.702 3832.53 280.702 3832.19 280.702 3832.02 280.363 3832.02 280.363 3832.02 280.363 3835.75 279.855 3835.75 279.855 3835.75 279.855 3840.49 284.258 3840.49 284.258 3840.49 284.258 3839.98 280.871 3839.98 280.871 3839.98 280.871 3839.98 280.363 3839.81 280.194 3839.64 280.024 3839.47 279.855 3839.14 279.686 3838.8 279.686 3838.63 279.516 3838.63 279.516 3838.63 279.516 3841.51 279.008 3841.51 279.008 3841.51 279.008 3841.51 279.347 3841.51 279.347 3841.51 279.347 3841.17 279.516 3840.83 279.516 3840.66 279.855 3840.49 280.024 3840.49 280.363 3840.66 280.702 3841.51 287.815 3841.51 287.815 3841.51 287.815 3840.66 287.984 3840.66 287.984 3840.66 287.984 3834.05 281.887 3834.05 281.887 3834.05 281.887 3834.73 287.137 3834.73 287.137 3834.73 287.137 3834.9 287.645 3834.9 287.984 3835.24 288.153 3835.41 288.323 3835.58 288.323 3836.08 288.323 3836.08 288.661 3836.08 288.661 3836.08 288.661 3833.37 289 3833.37 289 3833.37 289 3833.2 288.661 3833.2 288.661 3833.2 288.661 3833.71 288.661 3833.88 288.492 3834.05 288.323 3834.22 287.984 3834.22 287.645 3834.22 287.307 3833.37 281.718 3833.37 281.718 3833.37 281.718ZM3849.14 284.427C3849.31 284.936 3849.47 285.105 3849.64 285.274 3849.81 285.444 3850.15 285.444 3850.49 285.444 3850.66 285.613 3850.66 285.613 3850.66 285.613 3845.92 286.968 3845.92 286.968 3845.92 286.968 3845.75 286.798 3845.75 286.798 3845.75 286.798 3846.25 286.629 3846.42 286.46 3846.59 286.121 3846.59 285.952 3846.59 285.613 3846.59 285.274 3844.9 279.855 3844.9 279.855 3844.9 279.855 3844.9 279.516 3844.73 279.177 3844.39 279.008 3844.22 278.839 3843.88 278.839 3843.54 279.008 3843.54 278.669 3843.54 278.669 3843.54 278.669 3848.29 277.315 3848.29 277.315 3848.29 277.315 3848.29 277.653 3848.29 277.653 3848.29 277.653 3847.95 277.823 3847.61 277.992 3847.61 278.161 3847.44 278.331 3847.44 278.669 3847.61 279.177 3849.14 284.427 3849.14 284.427 3849.14 284.427ZM3857.1 283.073C3857.61 282.903 3857.61 282.903 3857.61 282.903 3856.93 274.605 3856.93 274.605 3856.93 274.605 3856.93 274.266 3856.93 274.097 3856.93 273.758 3857.1 273.589 3857.27 273.419 3857.44 273.25 3857.27 272.911 3857.27 272.911 3857.27 272.911 3854.9 274.266 3854.9 274.266 3854.9 274.266 3855.07 274.436 3855.07 274.436 3855.07 274.436 3855.41 274.436 3855.58 274.266 3855.75 274.266 3855.92 274.266 3856.08 274.436 3856.25 274.605 3856.25 274.605 3856.25 274.605 3856.25 274.774 3856.25 274.774 3856.25 274.944 3856.25 275.113 3856.76 279.516 3856.76 279.516 3856.76 279.516 3853.2 276.468 3853.2 276.468 3853.2 276.468 3853.03 276.298 3853.03 276.298 3853.03 276.298 3853.03 276.298 3853.03 276.129 3852.86 276.129 3852.86 275.96 3852.86 275.96 3852.86 275.79 3853.03 275.621 3853.2 275.452 3853.37 275.452 3853.37 275.282 3853.37 275.282 3853.37 275.282 3853.37 275.113 3853.37 275.113 3853.37 275.113 3849.31 277.145 3849.31 277.145 3849.31 277.145 3849.47 277.484 3849.47 277.484 3849.47 277.484 3849.64 277.315 3849.81 277.315 3850.15 277.315 3850.32 277.484 3850.49 277.653 3850.83 277.823 3857.1 283.073 3857.1 283.073 3857.1 283.073ZM3863.71 279.516C3863.54 279.347 3863.54 279.347 3863.54 279.347 3863.88 279.008 3864.05 278.669 3864.05 278.5 3864.05 278.161 3863.88 277.992 3863.71 277.653 3860.15 273.25 3860.15 273.25 3860.15 273.25 3859.81 272.911 3859.64 272.742 3859.31 272.742 3859.14 272.573 3858.8 272.742 3858.46 272.911 3858.29 272.742 3858.29 272.742 3858.29 272.742 3864.22 268 3864.22 268 3864.22 268 3865.75 269.694 3865.75 269.694 3865.75 269.694 3865.58 270.032 3865.58 270.032 3865.58 270.032 3865.07 269.524 3864.56 269.355 3864.05 269.355 3863.71 269.185 3863.2 269.524 3862.53 270.032 3861.68 270.71 3861.68 270.71 3861.68 270.71 3863.71 273.419 3863.71 273.419 3863.71 273.419 3863.88 273.25 3863.88 273.25 3863.88 273.25 3864.22 273.081 3864.39 272.742 3864.39 272.403 3864.39 271.895 3864.22 271.556 3863.88 271.048 3864.22 270.71 3864.22 270.71 3864.22 270.71 3866.76 274.097 3866.76 274.097 3866.76 274.097 3866.59 274.266 3866.59 274.266 3866.59 274.266 3866.08 273.758 3865.75 273.419 3865.41 273.419 3864.9 273.419 3864.56 273.419 3864.22 273.758 3864.22 273.927 3864.22 273.927 3864.22 273.927 3865.92 275.96 3865.92 275.96 3865.92 275.96 3866.08 276.298 3866.25 276.468 3866.42 276.468 3866.59 276.468 3866.93 276.298 3867.27 275.96 3867.95 275.452 3868.29 274.944 3868.46 274.436 3868.63 273.758 3868.46 273.25 3868.12 272.403 3868.46 272.234 3868.46 272.234 3868.46 272.234 3869.81 274.605 3869.81 274.605 3869.81 274.605 3863.71 279.516 3863.71 279.516 3863.71 279.516ZM3871.85 266.476C3872.02 266.306 3872.02 266.306 3872.02 266.306 3872.36 265.968 3872.53 265.46 3872.53 265.121 3872.36 264.782 3872.19 264.274 3871.68 263.935 3871.17 263.427 3870.66 263.258 3870.32 263.258 3869.81 263.258 3869.47 263.597 3869.14 264.105 3871.85 266.476 3871.85 266.476 3871.85 266.476ZM3874.22 268.339C3872.36 266.815 3872.36 266.815 3872.36 266.815 3872.53 266.645 3872.53 266.645 3872.53 266.645 3876.93 267.492 3876.93 267.492 3876.93 267.492 3878.97 264.952 3878.97 264.952 3878.97 264.952 3878.8 264.782 3878.8 264.782 3878.8 264.782 3878.63 264.952 3878.46 265.121 3878.29 265.121 3878.12 265.121 3877.78 265.121 3877.44 265.121 3874.05 264.444 3874.05 264.444 3874.05 264.444 3874.22 263.935 3874.22 263.427 3874.22 262.919 3874.05 262.411 3873.88 262.073 3873.37 261.734 3872.86 261.226 3872.19 261.056 3871.51 261.395 3870.83 261.564 3870.15 262.073 3869.31 262.919 3866.25 266.645 3866.25 266.645 3866.25 266.645 3866.42 266.815 3866.42 266.815 3866.42 266.815 3866.76 266.645 3867.1 266.476 3867.27 266.476 3867.44 266.476 3867.78 266.476 3868.12 266.815 3872.36 270.371 3872.36 270.371 3872.36 270.371 3872.69 270.71 3873.03 271.048 3873.03 271.218 3873.03 271.556 3872.86 271.726 3872.69 272.065 3872.86 272.234 3872.86 272.234 3872.86 272.234 3876.08 268.508 3876.08 268.508 3876.08 268.508 3875.92 268.169 3875.92 268.169 3875.92 268.169 3875.58 268.508 3875.41 268.677 3875.07 268.677 3874.9 268.847 3874.56 268.677 3874.22 268.339 3874.22 268.339 3874.22 268.339 3874.22 268.339ZM3881.34 262.411C3878.46 260.887 3878.46 260.887 3878.46 260.887 3878.63 260.548 3878.63 260.548 3878.63 260.548 3879.31 260.887 3879.98 260.887 3880.83 260.718 3881.51 260.379 3882.02 259.871 3882.36 259.194 3882.69 258.855 3882.69 258.347 3882.69 258.008 3882.69 257.669 3882.53 257.331 3882.19 257.161 3881.68 256.992 3880.83 257.331 3879.64 258.177 3879.47 258.177 3879.47 258.177 3879.47 258.177 3879.47 258.347 3879.31 258.347 3879.14 258.516 3878.29 259.194 3877.61 259.532 3877.1 259.532 3876.93 259.702 3876.59 259.702 3876.42 259.532 3876.08 259.532 3875.92 259.532 3875.75 259.363 3875.07 259.024 3874.56 258.347 3874.39 257.5 3874.22 256.823 3874.39 255.976 3874.9 255.129 3875.07 254.621 3875.41 254.282 3875.92 253.943 3876.42 253.435 3876.59 253.266 3876.59 253.266 3876.76 253.097 3876.76 252.927 3876.59 252.927 3876.59 252.758 3876.42 252.758 3876.25 252.589 3876.42 252.25 3876.42 252.25 3876.42 252.25 3878.97 253.605 3878.97 253.605 3878.97 253.605 3878.8 253.943 3878.8 253.943 3878.8 253.943 3878.12 253.605 3877.44 253.605 3876.93 253.943 3876.25 254.113 3875.75 254.621 3875.41 255.298 3875.24 255.637 3875.24 255.976 3875.24 256.314 3875.24 256.653 3875.41 256.823 3875.75 256.992 3876.08 257.161 3876.76 256.992 3877.78 256.314 3877.78 256.145 3877.78 256.145 3877.78 256.145 3878.46 255.637 3878.97 255.298 3879.31 255.129 3879.64 254.79 3879.98 254.79 3880.15 254.621 3880.49 254.621 3880.83 254.621 3881.17 254.621 3881.51 254.621 3881.85 254.79 3882.19 254.96 3882.86 255.298 3883.37 255.976 3883.54 256.823 3883.71 257.5 3883.54 258.347 3883.03 259.363 3882.69 259.702 3882.36 260.21 3881.85 260.718 3881.51 261.056 3881.17 261.395 3881.17 261.395 3881.17 261.564 3881.17 261.734 3881.17 261.734 3881.17 261.903 3881.34 262.073 3881.51 262.073 3881.34 262.411 3881.34 262.411 3881.34 262.411ZM3885.92 249.032C3880.66 247 3880.66 247 3880.66 247 3880.15 246.831 3879.98 246.661 3879.81 246.492 3879.81 246.322 3879.81 245.984 3879.81 245.645 3879.64 245.476 3879.64 245.476 3879.64 245.476 3877.78 250.048 3877.78 250.048 3877.78 250.048 3878.12 250.218 3878.12 250.218 3878.12 250.218 3878.29 249.879 3878.46 249.54 3878.63 249.54 3878.97 249.371 3879.31 249.371 3879.64 249.54 3884.9 251.573 3884.9 251.573 3884.9 251.573 3885.24 251.742 3885.58 251.911 3885.75 252.081 3885.75 252.419 3885.75 252.758 3885.58 253.097 3885.92 253.266 3885.92 253.266 3885.92 253.266 3887.78 248.524 3887.78 248.524 3887.78 248.524 3887.44 248.524 3887.44 248.524 3887.44 248.524 3887.27 248.863 3887.1 249.032 3886.76 249.202 3886.59 249.202 3886.25 249.202 3885.92 249.032 3885.92 249.032 3885.92 249.032 3885.92 249.032ZM3882.19 235.653C3884.39 236.161 3884.39 236.161 3884.39 236.161 3884.22 236.5 3884.22 236.5 3884.22 236.5 3883.71 236.5 3883.2 236.5 3882.86 236.669 3882.53 236.839 3882.36 237.347 3882.19 237.855 3882.02 238.363 3882.02 238.363 3882.02 238.363 3888.46 239.887 3888.46 239.887 3888.46 239.887 3888.97 240.056 3889.3 240.056 3889.47 239.887 3889.64 239.718 3889.81 239.548 3889.98 239.04 3890.32 239.21 3890.32 239.21 3890.32 239.21 3889.14 243.952 3889.14 243.952 3889.14 243.952 3888.8 243.952 3888.8 243.952 3888.8 243.952 3888.97 243.443 3888.97 243.274 3888.8 242.935 3888.63 242.766 3888.29 242.597 3887.95 242.597 3881.51 241.072 3881.51 241.072 3881.51 241.072 3881.34 241.581 3881.34 241.581 3881.34 241.581 3881.17 242.258 3881.34 242.597 3881.51 242.935 3881.68 243.274 3882.02 243.613 3882.53 243.782 3882.53 244.121 3882.53 244.121 3882.53 244.121 3880.32 243.613 3880.32 243.613 3880.32 243.613 3882.19 235.653 3882.19 235.653 3882.19 235.653ZM3886.93 228.879C3889.47 229.048 3889.47 229.048 3889.47 229.048 3889.81 229.048 3890.15 228.879 3890.32 228.71 3890.49 228.54 3890.66 228.201 3890.66 227.863 3891 227.863 3891 227.863 3891 227.863 3891 232.774 3891 232.774 3891 232.774 3890.66 232.774 3890.66 232.774 3890.66 232.774 3890.66 232.435 3890.49 232.097 3890.32 231.927 3890.15 231.758 3889.81 231.758 3889.3 231.758 3887.44 231.589 3887.44 231.589 3887.44 231.589 3883.37 233.79 3883.37 233.79 3883.37 233.79 3883.03 233.96 3882.86 234.129 3882.69 234.298 3882.53 234.468 3882.53 234.637 3882.53 234.976 3882.19 234.976 3882.19 234.976 3882.19 234.976 3882.19 230.403 3882.19 230.403 3882.19 230.403 3882.53 230.403 3882.53 230.403 3882.53 230.403 3882.53 230.572 3882.53 230.742 3882.69 230.911 3882.69 230.911 3882.86 231.081 3882.86 231.081 3883.03 231.081 3883.03 231.081 3883.03 231.081 3883.2 230.911 3883.2 230.911 3883.2 230.911 3886.42 229.387 3886.42 229.387 3886.42 229.387 3883.54 227.693 3883.54 227.693 3883.54 227.693 3883.37 227.693 3883.37 227.693 3883.37 227.693 3883.2 227.524 3883.2 227.524 3883.03 227.524 3882.86 227.524 3882.86 227.693 3882.69 227.863 3882.69 227.863 3882.69 228.201 3882.69 228.371 3882.69 228.54 3882.69 228.54 3882.69 228.54 3882.36 228.54 3882.36 228.54 3882.36 228.54 3882.36 226 3882.36 226 3882.36 226 3882.69 226 3882.69 226 3882.69 226 3882.69 226.169 3882.69 226.169 3882.69 226.169 3882.69 226.169 3882.69 226.339 3882.86 226.508 3882.86 226.677 3883.03 226.847 3883.37 227.016L3886.93 228.879Z" fill="#D42700" fill-rule="evenodd"/><path d="M3819 270.82C3819 270.461 3819 270.461 3819 270.461 3819.69 270.461 3820.04 270.461 3820.39 270.282 3820.56 270.282 3820.56 270.102 3820.56 269.923 3820.56 265.795 3820.56 265.795 3820.56 265.795 3820.56 265.615 3820.56 265.436 3820.39 265.256 3820.39 265.256 3820.21 265.256 3819.87 265.256 3819.87 265.256 3819.69 265.256 3819.52 265.256 3819.35 265.256 3819.35 265.256 3819.17 265.256 3819.17 264.897 3819.17 264.897 3819.17 264.897 3819.69 264.718 3820.21 264.718 3820.56 264.538 3821.08 264.538 3821.43 264.359 3821.95 264 3822.29 264 3822.29 264 3822.29 264 3822.29 269.923 3822.29 269.923 3822.29 269.923 3822.29 270.102 3822.47 270.282 3822.64 270.282 3822.81 270.461 3823.16 270.461 3823.85 270.461 3823.85 270.82 3823.85 270.82 3823.85 270.82 3823.51 270.82 3822.99 270.82 3822.64 270.82 3822.29 270.82 3821.77 270.82 3821.43 270.82 3820.91 270.82 3820.39 270.82 3820.04 270.82 3819.69 270.82 3819.35 270.82 3819 270.82 3819 270.82 3819 270.82 3819 270.82ZM3827.84 267.769C3827.49 267.949 3827.32 268.128 3826.97 268.308 3826.8 268.667 3826.8 268.846 3826.8 269.026 3826.8 269.564 3826.97 269.743 3827.32 270.102 3827.67 270.282 3828.01 270.461 3828.53 270.461 3828.88 270.461 3829.23 270.461 3829.57 270.102 3829.75 269.923 3829.92 269.743 3829.92 269.385 3829.92 269.026 3829.75 268.846 3829.4 268.487 3829.05 268.308 3828.53 268.128 3827.84 267.769 3827.84 267.769 3827.84 267.769 3827.84 267.769ZM3828.71 266.692C3829.05 266.513 3829.23 266.333 3829.4 266.154 3829.57 265.974 3829.57 265.795 3829.57 265.436 3829.57 265.256 3829.4 264.897 3829.23 264.718 3828.88 264.538 3828.71 264.538 3828.19 264.538 3827.84 264.538 3827.67 264.538 3827.32 264.718 3827.15 264.897 3826.97 265.077 3826.97 265.256 3826.97 265.615 3827.15 265.795 3827.49 265.974 3827.67 266.333 3828.19 266.513 3828.71 266.692 3828.71 266.692 3828.71 266.692 3828.71 266.692ZM3827.15 267.41C3826.63 267.231 3826.28 266.872 3826.11 266.692 3825.76 266.333 3825.76 266.154 3825.76 265.795 3825.76 265.256 3825.93 264.897 3826.45 264.538 3826.97 264.179 3827.67 264 3828.53 264 3829.23 264 3829.75 264.179 3830.27 264.538 3830.61 264.718 3830.96 265.077 3830.96 265.436 3830.96 265.795 3830.79 265.974 3830.61 266.333 3830.27 266.513 3829.92 266.692 3829.4 267.051 3830.09 267.231 3830.44 267.59 3830.79 267.769 3831.13 268.128 3831.31 268.487 3831.31 269.026 3831.31 269.564 3830.96 270.102 3830.44 270.461 3829.92 270.82 3829.23 271 3828.36 271 3827.32 271 3826.63 270.82 3826.11 270.461 3825.59 270.102 3825.24 269.743 3825.24 269.205 3825.24 268.846 3825.41 268.487 3825.76 268.128 3825.93 267.949 3826.45 267.59 3827.15 267.41 3827.15 267.41 3827.15 267.41 3827.15 267.41ZM3832.35 270.461C3832.87 269.923 3832.87 269.923 3832.87 269.923 3833.04 270.102 3833.21 270.282 3833.39 270.282 3833.73 270.282 3833.91 270.461 3834.08 270.461 3834.77 270.461 3835.29 270.102 3835.81 269.564 3836.16 269.026 3836.33 268.487 3836.33 267.59 3836.33 267.59 3836.33 267.59 3836.33 267.59 3836.16 267.949 3835.81 268.308 3835.47 268.487 3835.12 268.667 3834.77 268.667 3834.25 268.667 3833.73 268.667 3833.21 268.487 3832.69 268.128 3832.35 267.769 3832.17 267.231 3832.17 266.692 3832.17 265.974 3832.52 265.256 3833.04 264.718 3833.56 264.359 3834.25 264 3835.12 264 3835.99 264 3836.68 264.359 3837.2 264.897 3837.72 265.436 3838.07 266.154 3838.07 267.051 3838.07 267.59 3837.89 268.128 3837.72 268.667 3837.55 269.205 3837.37 269.564 3837.03 269.923 3836.51 270.282 3836.16 270.461 3835.64 270.82 3835.12 271 3834.77 271 3834.08 271 3833.73 271 3833.39 271 3833.04 270.82 3832.87 270.82 3832.52 270.641 3832.35 270.461 3832.35 270.461 3832.35 270.461 3832.35 270.461ZM3835.12 267.769C3835.47 267.769 3835.81 267.769 3835.99 267.41 3836.16 267.231 3836.33 266.872 3836.33 266.513 3836.33 265.974 3836.16 265.436 3835.99 265.077 3835.64 264.718 3835.29 264.538 3834.95 264.538 3834.6 264.538 3834.25 264.718 3834.08 265.077 3833.91 265.256 3833.91 265.615 3833.91 266.154 3833.91 266.692 3834.08 267.051 3834.25 267.41 3834.43 267.769 3834.77 267.769 3835.12 267.769 3835.12 267.769 3835.12 267.769 3835.12 267.769ZM3842.05 267.231C3841.71 267.231 3841.53 267.41 3841.19 267.59 3841.01 267.769 3841.01 268.128 3841.01 268.487 3841.01 269.205 3841.01 269.564 3841.36 269.923 3841.53 270.282 3841.88 270.461 3842.23 270.461 3842.57 270.461 3842.92 270.282 3843.09 270.102 3843.27 269.923 3843.27 269.564 3843.27 269.026 3843.27 268.487 3843.27 267.949 3843.09 267.769 3842.75 267.41 3842.57 267.231 3842.05 267.231 3842.05 267.231 3842.05 267.231 3842.05 267.231ZM3845 264.718C3844.31 265.077 3844.31 265.077 3844.31 265.077 3844.13 264.897 3843.96 264.897 3843.79 264.897 3843.61 264.718 3843.44 264.718 3843.09 264.718 3842.4 264.718 3841.88 264.897 3841.53 265.436 3841.01 265.974 3840.84 266.692 3840.84 267.41 3840.84 267.41 3840.84 267.41 3840.84 267.41 3841.01 267.051 3841.36 266.872 3841.71 266.692 3842.05 266.513 3842.4 266.333 3842.92 266.333 3843.61 266.333 3844.13 266.513 3844.48 266.872 3844.83 267.231 3845 267.769 3845 268.487 3845 269.205 3844.83 269.743 3844.31 270.282 3843.79 270.82 3843.09 271 3842.23 271 3841.19 271 3840.49 270.82 3839.97 270.282 3839.45 269.743 3839.11 268.846 3839.11 267.949 3839.11 267.41 3839.28 266.872 3839.45 266.333 3839.63 265.974 3839.97 265.615 3840.32 265.256 3840.67 264.897 3841.01 264.538 3841.53 264.359 3842.05 264.179 3842.57 264 3843.09 264 3843.44 264 3843.79 264.179 3844.13 264.179 3844.48 264.359 3844.65 264.538 3845 264.718Z" fill="#D42700" fill-rule="evenodd"/><path d="M3831 184C3855.87 184 3876 204.4 3876 229.22 3876 246.39 3866.7 261.18 3852.82 269 3851.81 267.13 3851.81 267.13 3851.81 267.13 3865.17 259.82 3874.14 245.54 3874.14 229.22 3874.14 205.42 3854.85 186.04 3831 186.04 3807.32 186.04 3787.86 205.42 3787.86 229.22 3787.86 245.71 3797 259.99 3810.36 267.3 3809.52 269 3809.52 269 3809.52 269 3795.47 261.35 3786 246.39 3786 229.22 3786 204.4 3806.3 184 3831 184Z" fill="#D42700" fill-rule="evenodd"/><path d="M3922.17 274.109C3923.87 274.109 3923.87 274.109 3923.87 274.109 3923.87 275.624 3924.21 276.634 3924.73 277.307 3925.41 278.149 3926.26 278.485 3927.45 278.485 3928.3 278.485 3928.99 278.149 3929.5 277.812 3930.18 277.307 3930.35 276.802 3930.35 275.961 3930.35 275.456 3930.18 274.951 3929.84 274.446 3929.5 274.109 3928.64 273.604 3927.28 273.099 3925.41 272.258 3924.04 271.584 3923.36 270.743 3922.68 269.901 3922.34 269.059 3922.34 267.881 3922.34 266.366 3922.85 265.188 3923.87 264.347 3924.9 263.337 3926.26 263 3927.79 263 3928.47 263 3929.16 263 3930.01 263.168 3930.69 263.168 3931.54 263.337 3932.56 263.505 3932.56 263.673 3932.56 263.673 3932.56 263.673 3932.56 264.515 3932.56 265.356 3932.56 265.861 3932.56 266.198 3932.56 266.871 3932.56 267.881 3932.56 267.881 3932.56 267.881 3932.56 267.881 3931.2 267.881 3931.2 267.881 3931.2 267.881 3931.2 266.703 3931.03 265.861 3930.35 265.188 3929.84 264.683 3929.16 264.347 3928.13 264.347 3927.28 264.347 3926.6 264.515 3926.26 264.851 3925.75 265.356 3925.58 265.861 3925.58 266.535 3925.58 267.04 3925.75 267.545 3926.09 268.05 3926.43 268.386 3927.28 268.891 3928.64 269.396 3928.82 269.396 3928.99 269.564 3929.33 269.733 3930.69 270.238 3931.71 270.743 3932.22 271.248 3932.73 271.584 3933.07 272.258 3933.25 272.762 3933.59 273.267 3933.76 273.941 3933.76 274.614 3933.76 276.297 3933.07 277.475 3932.05 278.485 3931.03 279.495 3929.5 280 3927.62 280 3926.6 280 3925.58 279.832 3924.73 279.664 3923.87 279.495 3922.85 279.159 3922 278.654 3922.17 278.149 3922.17 277.644 3922.17 276.97 3922.17 276.465 3922.17 275.961 3922.17 275.287 3922.17 274.951 3922.17 274.782 3922.17 274.614 3922.17 274.446 3922.17 274.277 3922.17 274.109 3922.17 274.109 3922.17 274.109 3922.17 274.109ZM3936.82 279.664C3936.82 278.654 3936.82 278.654 3936.82 278.654 3936.99 278.654 3936.99 278.654 3936.99 278.654 3937.85 278.654 3938.19 278.485 3938.53 278.317 3938.7 277.98 3938.87 277.475 3938.87 276.634 3938.87 265.693 3938.87 265.693 3938.87 265.693 3938.87 265.188 3938.7 264.851 3938.53 264.515 3938.19 264.347 3937.85 264.178 3937.16 264.178 3936.82 264.178 3936.82 264.178 3936.82 264.178 3936.82 263.337 3936.82 263.337 3936.82 263.337 3937.51 263.337 3938.19 263.337 3938.87 263.337 3939.55 263.505 3940.23 263.505 3940.74 263.505 3941.42 263.505 3942.11 263.505 3942.79 263.337 3943.47 263.337 3943.98 263.337 3944.66 263.337 3944.66 264.178 3944.66 264.178 3944.66 264.178 3943.98 264.178 3943.47 264.347 3943.3 264.515 3942.96 264.683 3942.79 265.02 3942.79 265.693 3942.79 276.634 3942.79 276.634 3942.79 276.634 3942.79 277.475 3942.96 277.98 3943.13 278.317 3943.47 278.485 3943.81 278.654 3944.66 278.654 3944.66 278.654 3944.66 278.654 3944.66 278.654 3944.66 279.664 3944.66 279.664 3944.66 279.664 3944.15 279.495 3943.47 279.495 3942.79 279.495 3942.11 279.495 3941.42 279.495 3940.74 279.495 3940.23 279.495 3939.72 279.495 3939.04 279.495 3938.36 279.495 3937.68 279.495 3936.82 279.664 3936.82 279.664 3936.82 279.664 3936.82 279.664ZM3962.21 263.673C3962.21 264.347 3962.04 264.851 3962.04 265.356 3962.04 265.861 3962.04 266.366 3962.04 266.871 3962.04 267.04 3962.04 267.376 3962.04 267.545 3962.04 267.881 3962.04 268.218 3962.04 268.723 3960.68 268.723 3960.68 268.723 3960.68 268.723 3960.51 267.208 3960.17 266.03 3959.49 265.356 3958.8 264.683 3957.95 264.178 3956.93 264.178 3955.23 264.178 3954.03 264.851 3953.18 266.03 3952.33 267.208 3951.82 268.891 3951.82 270.911 3951.82 273.099 3952.33 274.951 3953.35 276.129 3954.2 277.475 3955.57 278.149 3957.1 278.149 3957.95 278.149 3958.8 277.98 3959.49 277.475 3960.17 276.97 3961.02 276.297 3961.7 275.287 3962.89 275.961 3962.89 275.961 3962.89 275.961 3961.87 277.307 3961.02 278.317 3959.83 278.99 3958.63 279.664 3957.44 280 3955.91 280 3953.35 280 3951.31 279.159 3949.94 277.644 3948.41 276.129 3947.73 274.109 3947.73 271.416 3947.73 268.891 3948.58 266.871 3950.11 265.356 3951.82 263.673 3953.86 263 3956.59 263 3957.61 263 3959.14 263.168 3961.7 263.673 3961.87 263.673 3962.04 263.673 3962.21 263.673 3962.21 263.673 3962.21 263.673 3962.21 263.673ZM3965.28 279.664C3965.28 278.654 3965.28 278.654 3965.28 278.654 3965.45 278.654 3965.45 278.654 3965.45 278.654 3966.13 278.654 3966.64 278.485 3966.81 278.317 3967.15 277.98 3967.15 277.475 3967.15 276.634 3967.15 265.693 3967.15 265.693 3967.15 265.693 3967.15 265.188 3967.15 264.851 3966.81 264.515 3966.64 264.347 3966.13 264.178 3965.62 264.178 3965.28 264.178 3965.28 264.178 3965.28 264.178 3965.28 263.337 3965.28 263.337 3965.28 263.337 3965.79 263.337 3966.3 263.337 3966.81 263.337 3967.49 263.505 3968.17 263.505 3969.2 263.505 3970.05 263.505 3970.73 263.505 3971.41 263.337 3972.09 263.337 3972.6 263.337 3972.95 263.337 3972.95 264.178 3972.95 264.178 3972.95 264.178 3972.26 264.178 3971.75 264.347 3971.58 264.515 3971.24 264.683 3971.07 265.02 3971.07 265.693 3971.07 270.238 3971.07 270.238 3971.07 270.238 3978.06 270.238 3978.06 270.238 3978.06 270.238 3978.06 265.693 3978.06 265.693 3978.06 265.693 3978.06 265.188 3977.89 264.683 3977.55 264.515 3977.38 264.347 3976.86 264.178 3976.18 264.178 3976.01 264.178 3976.01 264.178 3976.01 264.178 3976.01 263.337 3976.01 263.337 3976.01 263.337 3976.69 263.337 3977.21 263.337 3977.89 263.337 3978.4 263.505 3979.25 263.505 3979.93 263.505 3980.78 263.505 3981.47 263.505 3981.98 263.337 3982.66 263.337 3983.17 263.337 3983.68 263.337 3983.68 264.178 3983.68 264.178 3983.68 264.178 3983.51 264.178 3983.51 264.178 3983.51 264.178 3982.83 264.178 3982.49 264.347 3982.32 264.515 3981.98 264.851 3981.81 265.188 3981.81 265.693 3981.81 276.634 3981.81 276.634 3981.81 276.634 3981.81 277.475 3981.98 277.98 3982.32 278.149 3982.49 278.485 3983 278.654 3983.68 278.654 3983.68 279.664 3983.68 279.664 3983.68 279.664 3983 279.495 3982.32 279.495 3981.64 279.495 3980.95 279.495 3980.44 279.495 3979.93 279.495 3979.59 279.495 3979.25 279.495 3978.57 279.495 3977.89 279.495 3977.04 279.495 3976.18 279.664 3976.18 278.654 3976.18 278.654 3976.18 278.654 3976.18 278.654 3976.18 278.654 3976.18 278.654 3977.04 278.654 3977.38 278.485 3977.72 278.317 3977.89 277.98 3978.06 277.475 3978.06 276.634 3978.06 271.416 3978.06 271.416 3978.06 271.416 3971.07 271.416 3971.07 271.416 3971.07 271.416 3971.07 276.634 3971.07 276.634 3971.07 276.634 3971.07 277.475 3971.24 277.98 3971.41 278.317 3971.75 278.485 3972.09 278.654 3972.95 278.654 3972.95 278.654 3972.95 278.654 3972.95 278.654 3972.95 279.495 3972.95 279.495 3972.95 279.495 3972.09 279.495 3971.41 279.495 3970.73 279.495 3970.05 279.495 3969.54 279.495 3969.2 279.495 3968.52 279.495 3968 279.495 3967.32 279.495 3966.64 279.495 3965.96 279.495 3965.28 279.664 3965.28 279.664 3965.28 279.664 3965.28 279.664ZM3988.11 265.693C3988.11 265.188 3987.94 264.851 3987.77 264.515 3987.43 264.347 3987.09 264.178 3986.41 264.178 3986.24 264.178 3986.24 264.178 3986.24 264.178 3986.24 263.337 3986.24 263.337 3986.24 263.337 3987.09 263.337 3987.77 263.337 3988.45 263.505 3988.96 263.505 3989.64 263.505 3990.15 263.505 3990.67 263.505 3991.18 263.505 3991.86 263.505 3992.54 263.337 3993.22 263.337 3994.07 263.337 3994.07 264.178 3994.07 264.178 3994.07 264.178 3993.22 264.178 3992.71 264.347 3992.54 264.515 3992.2 264.683 3992.03 265.02 3992.03 265.693 3992.03 273.099 3992.03 273.099 3992.03 273.099 3992.03 274.277 3992.2 275.119 3992.2 275.624 3992.37 276.129 3992.54 276.465 3992.71 276.802 3993.05 277.139 3993.56 277.475 3994.07 277.812 3994.58 277.98 3995.27 277.98 3995.95 277.98 3997.31 277.98 3998.33 277.644 3999.02 276.97 3999.7 276.129 3999.87 274.782 3999.87 273.099 3999.87 272.931 3999.87 272.931 3999.87 272.931 3999.87 266.03 3999.87 266.03 3999.87 266.03 3999.87 265.356 3999.87 264.851 3999.53 264.515 3999.36 264.347 3998.84 264.178 3997.99 264.178 3997.99 263.337 3997.99 263.337 3997.99 263.337 3998.5 263.337 3999.02 263.337 3999.36 263.337 3999.7 263.337 4000.04 263.505 4000.38 263.505 4000.72 263.505 4001.23 263.337 4001.57 263.337 4001.91 263.337 4002.42 263.337 4002.76 263.337 4002.76 264.178 4002.76 264.178 4002.76 264.178 4002.25 264.178 4001.91 264.347 4001.74 264.515 4001.57 264.683 4001.4 265.188 4001.4 266.03 4001.23 273.436 4001.23 273.436 4001.23 273.436 4001.23 275.792 4000.72 277.475 3999.7 278.485 3998.67 279.495 3996.97 280 3994.76 280 3992.54 280 3991.01 279.495 3989.81 278.654 3988.62 277.644 3988.11 276.297 3988.11 274.614 3988.11 265.693 3988.11 265.693 3988.11 265.693ZM4011.28 267.545C4009.07 273.099 4009.07 273.099 4009.07 273.099 4013.33 273.099 4013.33 273.099 4013.33 273.099 4011.28 267.545 4011.28 267.545 4011.28 267.545ZM4007.36 277.139C4007.19 277.307 4007.19 277.475 4007.19 277.475 4007.19 277.644 4007.19 277.812 4007.19 277.812 4007.19 278.317 4007.7 278.485 4008.9 278.654 4008.9 278.654 4008.9 278.654 4008.9 278.654 4008.9 279.664 4008.9 279.664 4008.9 279.664 4008.39 279.495 4008.05 279.495 4007.53 279.495 4007.02 279.495 4006.68 279.495 4006.34 279.495 4006 279.495 4005.83 279.495 4005.49 279.495 4005.15 279.495 4004.47 279.495 4003.79 279.664 4003.79 278.654 4003.79 278.654 4003.79 278.654 4004.3 278.485 4004.64 278.317 4004.98 278.149 4005.32 277.812 4005.66 277.307 4006 276.634 4011.96 263.337 4011.96 263.337 4011.96 263.337 4013.5 263.337 4013.5 263.337 4013.5 263.337 4018.78 277.475 4018.78 277.475 4018.78 277.475 4018.95 277.98 4019.29 278.149 4019.46 278.317 4019.8 278.485 4020.14 278.654 4020.65 278.654 4020.65 279.664 4020.65 279.664 4020.65 279.664 4019.97 279.495 4019.29 279.495 4018.61 279.495 4018.1 279.495 4017.42 279.495 4016.91 279.495 4016.39 279.495 4015.88 279.495 4015.2 279.495 4014.52 279.495 4013.67 279.495 4012.99 279.664 4012.99 278.654 4012.99 278.654 4012.99 278.654 4013.84 278.654 4014.35 278.485 4014.52 278.485 4014.86 278.317 4014.86 278.149 4014.86 277.812 4014.86 277.812 4014.86 277.644 4014.86 277.644 4014.86 277.475 4014.86 277.475 4014.86 277.307 4013.67 274.277 4013.67 274.277 4013.67 274.277 4008.56 274.277 4008.56 274.277 4008.56 274.277 4007.36 277.139 4007.36 277.139 4007.36 277.139ZM4036.5 273.772C4036.5 265.861 4036.5 265.861 4036.5 265.861 4036.5 265.188 4036.33 264.683 4035.99 264.515 4035.82 264.347 4035.14 264.178 4034.29 264.178 4034.29 263.337 4034.29 263.337 4034.29 263.337 4034.63 263.337 4035.14 263.337 4035.48 263.337 4035.99 263.337 4036.5 263.337 4037.01 263.337 4037.52 263.337 4037.86 263.337 4038.37 263.337 4038.72 263.337 4039.23 263.337 4039.57 263.337 4039.57 264.178 4039.57 264.178 4039.57 264.178 4039.4 264.178 4039.4 264.178 4039.4 264.178 4038.89 264.178 4038.37 264.347 4038.2 264.515 4038.03 264.851 4037.86 265.188 4037.86 265.861 4037.86 279.664 4037.86 279.664 4037.86 279.664 4036.33 279.664 4036.33 279.664 4036.33 279.664 4025.94 266.366 4025.94 266.366 4025.94 266.366 4025.94 276.634 4025.94 276.634 4025.94 276.634 4025.94 277.475 4026.11 277.98 4026.28 278.317 4026.62 278.485 4027.13 278.654 4028.15 278.654 4028.15 279.664 4028.15 279.664 4028.15 279.664 4027.64 279.495 4027.13 279.495 4026.62 279.495 4026.11 279.495 4025.6 279.495 4025.08 279.495 4024.74 279.495 4024.23 279.495 4023.89 279.495 4023.38 279.495 4022.87 279.495 4022.53 279.664 4022.53 278.654 4022.53 278.654 4022.53 278.654 4023.38 278.654 4023.89 278.485 4024.06 278.317 4024.4 277.98 4024.57 277.475 4024.57 276.634 4024.57 265.861 4024.57 265.861 4024.57 265.861 4024.57 265.188 4024.4 264.851 4024.06 264.515 4023.89 264.347 4023.38 264.347 4022.7 264.178 4022.7 263.337 4022.7 263.337 4022.7 263.337 4023.38 263.337 4024.06 263.337 4024.4 263.337 4024.74 263.337 4025.08 263.505 4025.43 263.505 4025.77 263.505 4026.28 263.337 4026.62 263.337 4027.13 263.337 4027.64 263.337 4028.15 263.337 4036.5 273.772 4036.5 273.772 4036.5 273.772ZM4055.07 265.693C4055.07 265.188 4054.9 264.851 4054.73 264.515 4054.39 264.347 4054.05 264.178 4053.37 264.178 4053.2 264.178 4053.2 264.178 4053.2 264.178 4053.2 263.337 4053.2 263.337 4053.2 263.337 4054.05 263.337 4054.73 263.337 4055.24 263.505 4055.92 263.505 4056.61 263.505 4057.12 263.505 4057.63 263.505 4058.14 263.505 4058.82 263.505 4059.5 263.337 4060.18 263.337 4060.87 263.337 4060.87 264.178 4060.87 264.178 4060.87 264.178 4060.18 264.178 4059.67 264.347 4059.5 264.515 4059.16 264.683 4058.99 265.02 4058.99 265.693 4058.99 273.099 4058.99 273.099 4058.99 273.099 4058.99 274.277 4059.16 275.119 4059.16 275.624 4059.33 276.129 4059.5 276.465 4059.67 276.802 4060.01 277.139 4060.53 277.475 4061.04 277.812 4061.55 277.98 4062.06 277.98 4062.91 277.98 4064.27 277.98 4065.3 277.644 4065.98 276.97 4066.49 276.129 4066.83 274.782 4066.83 273.099 4066.83 272.931 4066.83 272.931 4066.83 272.931 4066.83 266.03 4066.83 266.03 4066.83 266.03 4066.83 265.356 4066.66 264.851 4066.49 264.515 4066.32 264.347 4065.81 264.178 4064.96 264.178 4064.96 263.337 4064.96 263.337 4064.96 263.337 4065.47 263.337 4065.98 263.337 4066.32 263.337 4066.66 263.337 4067 263.505 4067.34 263.505 4067.68 263.505 4068.02 263.337 4068.53 263.337 4068.87 263.337 4069.39 263.337 4069.73 263.337 4069.73 264.178 4069.73 264.178 4069.73 264.178 4069.21 264.178 4068.87 264.347 4068.7 264.515 4068.53 264.683 4068.36 265.188 4068.36 266.03 4068.19 273.436 4068.19 273.436 4068.19 273.436 4068.19 275.792 4067.68 277.475 4066.66 278.485 4065.64 279.495 4063.93 280 4061.72 280 4059.5 280 4057.8 279.495 4056.78 278.654 4055.58 277.644 4055.07 276.297 4055.07 274.614 4055.07 265.693 4055.07 265.693 4055.07 265.693ZM4086.08 273.772C4086.08 265.861 4086.08 265.861 4086.08 265.861 4086.08 265.188 4085.91 264.683 4085.74 264.515 4085.4 264.347 4084.89 264.178 4083.87 264.178 4083.87 263.337 4083.87 263.337 4083.87 263.337 4084.38 263.337 4084.72 263.337 4085.23 263.337 4085.57 263.337 4086.08 263.337 4086.59 263.337 4087.11 263.337 4087.62 263.337 4087.96 263.337 4088.47 263.337 4088.81 263.337 4089.15 263.337 4089.15 264.178 4089.15 264.178 4089.15 264.178 4088.98 264.178 4088.98 264.178 4088.98 264.178 4088.47 264.178 4088.13 264.347 4087.79 264.515 4087.62 264.851 4087.45 265.188 4087.45 265.861 4087.45 279.664 4087.45 279.664 4087.45 279.664 4086.08 279.664 4086.08 279.664 4086.08 279.664 4075.52 266.366 4075.52 266.366 4075.52 266.366 4075.52 276.634 4075.52 276.634 4075.52 276.634 4075.52 277.475 4075.69 277.98 4076.03 278.317 4076.2 278.485 4076.88 278.654 4077.73 278.654 4077.73 279.664 4077.73 279.664 4077.73 279.664 4077.22 279.495 4076.71 279.495 4076.2 279.495 4075.69 279.495 4075.35 279.495 4074.84 279.495 4074.33 279.495 4073.99 279.495 4073.47 279.495 4072.96 279.495 4072.62 279.495 4072.11 279.664 4072.11 278.654 4072.11 278.654 4072.11 278.654 4072.96 278.654 4073.47 278.485 4073.82 278.317 4073.99 277.98 4074.16 277.475 4074.16 276.634 4074.16 265.861 4074.16 265.861 4074.16 265.861 4074.16 265.188 4073.99 264.851 4073.82 264.515 4073.47 264.347 4072.96 264.347 4072.28 264.178 4072.28 263.337 4072.28 263.337 4072.28 263.337 4073.13 263.337 4073.65 263.337 4073.99 263.337 4074.5 263.337 4074.84 263.505 4075.18 263.505 4075.52 263.505 4075.86 263.337 4076.37 263.337 4076.71 263.337 4077.22 263.337 4077.9 263.337 4086.08 273.772 4086.08 273.772 4086.08 273.772ZM4091.88 279.664C4091.88 278.654 4091.88 278.654 4091.88 278.654 4091.88 278.654 4091.88 278.654 4091.88 278.654 4092.73 278.654 4093.24 278.485 4093.41 278.317 4093.58 277.98 4093.75 277.475 4093.75 276.634 4093.75 265.693 4093.75 265.693 4093.75 265.693 4093.75 265.188 4093.58 264.851 4093.41 264.515 4093.07 264.347 4092.73 264.178 4092.05 264.178 4091.88 264.178 4091.88 264.178 4091.88 264.178 4091.88 263.337 4091.88 263.337 4091.88 263.337 4092.56 263.337 4093.07 263.337 4093.75 263.337 4094.43 263.505 4095.11 263.505 4095.8 263.505 4096.31 263.505 4096.99 263.505 4097.67 263.337 4098.35 263.337 4099.03 263.337 4099.54 263.337 4099.54 264.178 4099.54 264.178 4099.54 264.178 4098.86 264.178 4098.35 264.347 4098.18 264.515 4097.84 264.683 4097.67 265.02 4097.67 265.693 4097.67 276.634 4097.67 276.634 4097.67 276.634 4097.67 277.475 4097.84 277.98 4098.01 278.317 4098.35 278.485 4098.86 278.654 4099.54 278.654 4099.54 278.654 4099.54 278.654 4099.54 278.654 4099.54 279.664 4099.54 279.664 4099.54 279.664 4099.03 279.495 4098.35 279.495 4097.67 279.495 4096.99 279.495 4096.48 279.495 4095.8 279.495 4095.11 279.495 4094.6 279.495 4093.92 279.495 4093.24 279.495 4092.56 279.495 4091.88 279.664 4091.88 279.664 4091.88 279.664 4091.88 279.664ZM4110.62 279.832C4108.92 279.832 4108.92 279.832 4108.92 279.832 4103.63 265.693 4103.63 265.693 4103.63 265.693 4103.46 265.188 4103.29 264.851 4102.95 264.515 4102.61 264.347 4102.27 264.178 4101.76 264.178 4101.59 264.178 4101.59 264.178 4101.59 264.178 4101.59 263.337 4101.59 263.337 4101.59 263.337 4102.27 263.337 4102.95 263.337 4103.63 263.337 4104.31 263.337 4104.83 263.505 4105.34 263.505 4105.85 263.505 4106.19 263.337 4106.87 263.337 4107.38 263.337 4108.23 263.337 4109.43 263.337 4109.43 264.178 4109.43 264.178 4109.43 264.178 4109.26 264.178 4109.26 264.178 4109.26 264.178 4108.57 264.178 4108.23 264.347 4108.06 264.347 4107.72 264.515 4107.55 264.851 4107.55 265.02 4107.55 265.188 4107.55 265.188 4107.72 265.356 4107.72 265.356 4107.72 265.525 4107.72 265.525 4111.13 275.456 4111.13 275.456 4111.13 275.456 4115.05 265.693 4115.05 265.693 4115.05 265.693 4115.22 265.356 4115.22 265.356 4115.22 265.188 4115.22 265.02 4115.39 264.851 4115.39 264.851 4115.39 264.515 4115.22 264.515 4114.88 264.347 4114.71 264.178 4114.2 264.178 4113.69 264.178 4113.52 264.178 4113.52 264.178 4113.52 264.178 4113.52 263.337 4113.52 263.337 4113.52 263.337 4113.86 263.337 4114.2 263.337 4114.54 263.337 4114.88 263.337 4115.39 263.337 4115.73 263.337 4116.24 263.337 4116.75 263.337 4117.09 263.337 4117.43 263.337 4117.78 263.337 4118.12 263.337 4118.29 264.178 4118.29 264.178 4118.29 264.178 4117.78 264.178 4117.6 264.347 4117.26 264.515 4117.09 264.683 4116.92 265.02 4116.75 265.525 4110.62 279.832 4110.62 279.832 4110.62 279.832ZM4120.16 279.664C4120.16 278.654 4120.16 278.654 4120.16 278.654 4120.5 278.654 4120.5 278.654 4120.5 278.654 4121.01 278.654 4121.52 278.485 4121.86 278.317 4122.04 277.98 4122.21 277.644 4122.21 277.139 4122.21 265.693 4122.21 265.693 4122.21 265.693 4122.21 265.188 4122.04 264.851 4121.86 264.683 4121.52 264.347 4121.01 264.178 4120.5 264.178 4120.16 264.178 4120.16 264.178 4120.16 264.178 4120.16 263.337 4120.16 263.337 4120.16 263.337 4120.67 263.337 4121.35 263.337 4122.04 263.337 4122.72 263.337 4123.74 263.337 4125.27 263.337 4127.66 263.337 4127.66 263.337 4127.66 263.337 4128.85 263.337 4129.7 263.337 4130.55 263.337 4131.24 263.337 4131.92 263.337 4132.6 263.337 4132.6 263.842 4132.6 264.515 4132.6 265.188 4132.6 265.693 4132.77 266.535 4132.77 267.208 4131.75 267.208 4131.75 267.208 4131.75 267.208 4131.58 266.198 4131.24 265.525 4130.73 265.02 4130.21 264.683 4129.19 264.515 4127.83 264.515 4127.15 264.515 4126.64 264.515 4126.47 264.683 4126.12 264.683 4126.12 265.02 4126.12 265.188 4126.12 270.743 4126.12 270.743 4126.12 270.743 4128.17 270.743 4128.17 270.743 4128.17 270.743 4128.85 270.743 4129.36 270.574 4129.7 270.069 4130.04 269.733 4130.21 269.228 4130.21 268.386 4131.07 268.386 4131.07 268.386 4131.07 268.386 4131.07 268.891 4131.07 269.396 4131.07 269.733 4131.07 270.238 4131.07 270.743 4131.07 271.248 4131.07 271.753 4131.07 272.089 4131.07 272.594 4131.07 273.099 4131.07 273.604 4131.07 273.941 4130.21 273.941 4130.21 273.941 4130.21 273.941 4130.21 273.099 4130.04 272.594 4129.7 272.258 4129.53 271.921 4129.02 271.753 4128.34 271.753 4126.12 271.753 4126.12 271.753 4126.12 271.753 4126.12 277.307 4126.12 277.307 4126.12 277.307 4126.12 277.644 4126.12 277.812 4126.29 277.98 4126.64 278.149 4126.81 278.149 4127.32 278.149 4129.19 278.149 4130.55 277.98 4131.41 277.475 4132.09 276.97 4132.6 276.129 4132.94 274.951 4133.96 274.951 4133.96 274.951 4133.96 274.951 4133.79 275.792 4133.62 276.465 4133.45 277.307 4133.28 278.149 4133.11 278.822 4133.11 279.664 4132.09 279.495 4131.24 279.495 4130.04 279.495 4129.02 279.495 4127.83 279.495 4126.64 279.495 4125.27 279.495 4124.08 279.495 4123.06 279.495 4122.04 279.495 4121.01 279.495 4120.16 279.664 4120.16 279.664 4120.16 279.664 4120.16 279.664ZM4136.52 279.664C4136.52 278.654 4136.52 278.654 4136.52 278.654 4137.2 278.654 4137.71 278.485 4137.88 278.317 4138.22 277.98 4138.39 277.475 4138.39 276.634 4138.39 265.693 4138.39 265.693 4138.39 265.693 4138.39 265.188 4138.22 264.851 4137.88 264.515 4137.71 264.347 4137.2 264.178 4136.69 264.178 4136.52 264.178 4136.52 264.178 4136.52 264.178 4136.52 263.337 4136.52 263.337 4136.52 263.337 4137.03 263.337 4137.54 263.337 4138.05 263.337 4138.56 263.337 4139.07 263.505 4139.58 263.505 4140.27 263.505 4141.12 263.337 4142.14 263.337 4143.16 263.337 4143.84 263.337 4144.36 263.337 4146.23 263.337 4147.76 263.673 4148.62 264.178 4149.64 264.851 4150.15 265.861 4150.15 267.04 4150.15 268.05 4149.81 269.059 4149.13 269.733 4148.45 270.574 4147.42 271.248 4146.23 271.584 4146.91 271.921 4147.59 272.426 4148.27 273.267 4148.96 274.109 4149.64 275.287 4150.49 276.802 4150.49 276.97 4150.49 277.139 4150.66 277.307 4151.17 278.485 4151.68 278.99 4152.19 278.99 4152.36 278.99 4152.36 278.99 4152.36 278.99 4152.36 279.832 4152.36 279.832 4152.36 279.832 4151.51 279.664 4150.49 279.664 4149.3 279.495 4149.13 279.495 4149.13 279.495 4148.96 279.495 4148.27 279.495 4147.93 279.327 4147.59 279.159 4147.25 278.822 4146.91 278.317 4146.57 277.475 4146.4 276.97 4146.23 276.465 4145.89 275.624 4145.21 273.772 4144.7 272.762 4144.19 272.426 4144.02 272.426 4143.84 272.258 4143.67 272.258 4143.5 272.258 4143.16 272.258 4142.82 272.258 4142.82 272.258 4142.65 272.258 4142.65 272.258 4142.48 272.258 4142.31 272.258 4142.14 272.258 4142.14 276.634 4142.14 276.634 4142.14 276.634 4142.14 277.475 4142.31 277.98 4142.48 278.149 4142.65 278.485 4143.16 278.654 4143.84 278.654 4143.84 279.664 4143.84 279.664 4143.84 279.664 4142.99 279.495 4142.14 279.495 4141.63 279.495 4140.95 279.495 4140.44 279.495 4140.27 279.495 4139.58 279.495 4139.07 279.495 4138.39 279.495 4137.88 279.495 4137.2 279.495 4136.52 279.664 4136.52 279.664 4136.52 279.664 4136.52 279.664ZM4142.14 271.079C4143.16 271.079 4143.16 271.079 4143.16 271.079 4144.36 271.079 4145.21 270.743 4145.72 270.238 4146.23 269.733 4146.57 268.891 4146.57 267.713 4146.57 266.535 4146.23 265.693 4145.72 265.188 4145.04 264.683 4144.19 264.347 4142.99 264.347 4142.65 264.347 4142.65 264.347 4142.48 264.347 4142.31 264.515 4142.31 264.515 4142.14 264.515 4142.14 271.079 4142.14 271.079 4142.14 271.079ZM4155.43 274.109C4157.13 274.109 4157.13 274.109 4157.13 274.109 4157.13 275.624 4157.48 276.634 4157.99 277.307 4158.67 278.149 4159.52 278.485 4160.54 278.485 4161.56 278.485 4162.25 278.149 4162.76 277.812 4163.27 277.307 4163.61 276.802 4163.61 275.961 4163.61 275.456 4163.44 274.951 4163.1 274.446 4162.76 274.109 4161.91 273.604 4160.54 273.099 4158.67 272.258 4157.31 271.584 4156.62 270.743 4155.94 269.901 4155.6 269.059 4155.6 267.881 4155.6 266.366 4156.11 265.188 4157.13 264.347 4158.16 263.337 4159.35 263 4161.05 263 4161.74 263 4162.42 263 4163.1 263.168 4163.95 263.168 4164.8 263.337 4165.82 263.505 4165.82 263.673 4165.82 263.673 4165.82 263.673 4165.82 264.515 4165.82 265.356 4165.82 265.861 4165.82 266.198 4165.82 266.871 4165.82 267.881 4165.82 267.881 4165.82 267.881 4165.82 267.881 4164.46 267.881 4164.46 267.881 4164.46 267.881 4164.46 266.703 4164.12 265.861 4163.61 265.188 4163.1 264.683 4162.25 264.347 4161.22 264.347 4160.54 264.347 4159.86 264.515 4159.35 264.851 4159.01 265.356 4158.67 265.861 4158.67 266.535 4158.67 267.04 4158.84 267.545 4159.18 268.05 4159.69 268.386 4160.54 268.891 4161.74 269.396 4161.91 269.396 4162.25 269.564 4162.59 269.733 4163.95 270.238 4164.97 270.743 4165.48 271.248 4166 271.584 4166.34 272.258 4166.51 272.762 4166.85 273.267 4166.85 273.941 4166.85 274.614 4166.85 276.297 4166.34 277.475 4165.31 278.485 4164.12 279.495 4162.76 280 4160.88 280 4159.86 280 4158.84 279.832 4157.99 279.664 4156.96 279.495 4156.11 279.159 4155.26 278.654 4155.43 278.149 4155.43 277.644 4155.43 276.97 4155.43 276.465 4155.43 275.961 4155.43 275.287 4155.43 274.951 4155.43 274.782 4155.43 274.614 4155.43 274.446 4155.43 274.277 4155.43 274.109 4155.43 274.109 4155.43 274.109 4155.43 274.109ZM4170.08 279.664C4170.08 278.654 4170.08 278.654 4170.08 278.654 4170.25 278.654 4170.25 278.654 4170.25 278.654 4170.94 278.654 4171.45 278.485 4171.79 278.317 4171.96 277.98 4172.13 277.475 4172.13 276.634 4172.13 265.693 4172.13 265.693 4172.13 265.693 4172.13 265.188 4171.96 264.851 4171.62 264.515 4171.45 264.347 4170.94 264.178 4170.43 264.178 4170.08 264.178 4170.08 264.178 4170.08 264.178 4170.08 263.337 4170.08 263.337 4170.08 263.337 4170.77 263.337 4171.45 263.337 4172.13 263.337 4172.81 263.505 4173.32 263.505 4174 263.505 4174.69 263.505 4175.37 263.505 4176.05 263.337 4176.56 263.337 4177.24 263.337 4177.92 263.337 4177.92 264.178 4177.92 264.178 4177.92 264.178 4177.24 264.178 4176.73 264.347 4176.39 264.515 4176.22 264.683 4176.05 265.02 4176.05 265.693 4176.05 276.634 4176.05 276.634 4176.05 276.634 4176.05 277.475 4176.22 277.98 4176.39 278.317 4176.56 278.485 4177.07 278.654 4177.75 278.654 4177.92 278.654 4177.92 278.654 4177.92 278.654 4177.92 279.664 4177.92 279.664 4177.92 279.664 4177.24 279.495 4176.73 279.495 4176.05 279.495 4175.37 279.495 4174.69 279.495 4174 279.495 4173.49 279.495 4172.81 279.495 4172.3 279.495 4171.62 279.495 4170.94 279.495 4170.08 279.664 4170.08 279.664 4170.08 279.664 4170.08 279.664ZM4183.2 279.664C4183.2 278.654 4183.2 278.654 4183.2 278.654 4183.54 278.654 4183.54 278.654 4183.54 278.654 4184.23 278.654 4184.74 278.485 4184.91 278.317 4185.25 277.98 4185.42 277.644 4185.42 277.139 4185.42 264.515 4185.42 264.515 4185.42 264.515 4184.91 264.515 4184.91 264.515 4184.91 264.515 4183.89 264.515 4183.03 264.683 4182.35 265.188 4181.84 265.693 4181.5 266.366 4181.33 267.376 4180.48 267.376 4180.48 267.376 4180.48 267.376 4180.65 263.337 4180.65 263.337 4180.65 263.337 4180.99 263.337 4181.33 263.337 4181.67 263.337 4182.18 263.337 4182.86 263.337 4183.72 263.337 4187.29 263.337 4187.29 263.337 4187.29 263.337 4190.87 263.337 4190.87 263.337 4190.87 263.337 4191.89 263.337 4192.58 263.337 4193.09 263.337 4193.43 263.337 4193.77 263.337 4194.11 263.337 4194.28 267.376 4194.28 267.376 4194.28 267.376 4193.43 267.376 4193.43 267.376 4193.43 267.376 4193.26 266.366 4192.92 265.693 4192.23 265.188 4191.72 264.683 4190.87 264.515 4189.85 264.515 4189.34 264.515 4189.34 264.515 4189.34 264.515 4189.34 276.97 4189.34 276.97 4189.34 276.97 4189.34 277.644 4189.51 277.98 4189.68 278.317 4190.02 278.485 4190.53 278.654 4191.21 278.654 4191.38 278.654 4191.38 278.654 4191.38 278.654 4191.38 279.664 4191.38 279.664 4191.38 279.664 4190.53 279.495 4189.68 279.495 4189 279.495 4188.32 279.495 4187.8 279.495 4187.29 279.495 4186.61 279.495 4185.93 279.495 4185.25 279.495 4184.57 279.495 4183.89 279.495 4183.2 279.664 4183.2 279.664 4183.2 279.664 4183.2 279.664ZM4205.87 272.426C4205.87 276.634 4205.87 276.634 4205.87 276.634 4205.87 277.475 4206.04 277.98 4206.38 278.317 4206.55 278.485 4207.06 278.654 4207.91 278.654 4208.25 278.654 4208.25 278.654 4208.25 278.654 4208.25 279.664 4208.25 279.664 4208.25 279.664 4207.4 279.495 4206.55 279.495 4205.87 279.495 4205.01 279.495 4204.5 279.495 4204.16 279.495 4203.65 279.495 4202.97 279.495 4202.29 279.495 4201.44 279.495 4200.58 279.495 4199.73 279.664 4199.73 278.654 4199.73 278.654 4199.73 278.654 4200.24 278.654 4200.24 278.654 4200.24 278.654 4201.1 278.654 4201.61 278.485 4201.78 278.317 4202.12 277.98 4202.12 277.475 4202.12 276.634 4202.12 272.426 4202.12 272.426 4202.12 272.426 4197.86 265.356 4197.86 265.356 4197.86 265.356 4197.86 265.356 4197.86 265.356 4197.86 265.356 4197.35 264.683 4196.84 264.178 4196.32 264.178 4195.98 264.178 4195.98 264.178 4195.98 264.178 4195.98 263.337 4195.98 263.337 4195.98 263.337 4196.67 263.337 4197.35 263.337 4198.03 263.337 4198.54 263.337 4199.22 263.505 4199.9 263.505 4200.75 263.505 4201.44 263.337 4202.12 263.337 4202.8 263.337 4203.31 263.337 4203.82 263.337 4203.82 264.178 4203.82 264.178 4203.82 264.178 4203.14 264.178 4202.63 264.178 4202.46 264.347 4202.12 264.515 4202.12 264.515 4202.12 264.851 4202.12 264.851 4202.12 264.851 4202.12 265.02 4202.12 265.02 4202.12 265.188 4202.12 265.188 4205.53 271.079 4205.53 271.079 4205.53 271.079 4208.76 265.188 4208.76 265.188 4208.76 265.188 4208.76 265.02 4208.76 265.02 4208.76 264.851 4208.76 264.851 4208.76 264.851 4208.76 264.683 4208.76 264.515 4208.76 264.347 4208.42 264.347 4208.08 264.178 4207.74 264.178 4207.06 264.178 4207.06 263.337 4207.06 263.337 4207.06 263.337 4207.57 263.337 4208.08 263.337 4208.59 263.337 4208.93 263.337 4209.27 263.505 4209.61 263.505 4210.13 263.505 4210.47 263.337 4210.81 263.337 4211.32 263.337 4211.66 263.337 4212 263.337 4212 264.178 4212 264.178 4212 264.178 4211.49 264.178 4211.15 264.347 4210.98 264.347 4210.81 264.515 4210.64 264.683 4210.3 265.188L4205.87 272.426Z" fill="#0A0A0A" fill-rule="evenodd"/><path d="M3946.46 214.167C3945.45 213.833 3945.62 211.167 3943.93 210.167 3942.41 209.167 3941.06 209.167 3939.88 209.167 3938.7 209.333 3936.17 211.333 3936 215.5 3936 219.667 3940.22 231.167 3941.74 233.167 3943.25 235 3948.48 234 3947.81 232 3946.97 230.167 3945.62 225 3946.97 222.5 3948.32 220.167 3950.85 215.833 3958.27 211.5 3965.86 207.333 3971.6 207.5 3972.95 208 3974.3 208.5 3973.79 210.833 3973.62 211.5 3973.28 212.167 3968.22 218 3968.22 218.5 3968.05 219 3966.37 220 3966.2 218.167 3966.2 216.333 3965.86 214.5 3964 213.833 3962.32 213.167 3960.63 212.833 3959.79 215.167 3959.11 217.5 3960.29 219.167 3961.31 219.833 3962.15 220.667 3963.67 222 3962.32 222.167 3961.14 222.167 3957.26 224.667 3957.26 224.667 3957.26 224.667 3954.73 224.333 3954.22 226.5 3953.88 228.667 3955.4 231.167 3956.58 230.5 3957.59 229.833 3960.97 227.833 3962.99 227 3965.19 226.167 3968.73 225 3970.08 225.833 3971.43 226.667 3971.6 228 3973.96 229.167 3976.49 230.5 3981.21 230.667 3983.24 229.833 3985.26 228.833 3996.06 224 3998.25 224.167 4000.61 224.333 4003.14 226.667 4004.16 222.5 4005 218.333 3999.77 207.167 3992.85 204.5 3985.77 201.833 3977.84 201 3968.56 203 3959.45 204.833 3955.06 206.667 3951.69 210 3948.32 213.167 3947.47 214.667 3946.46 214.167 3946.46 214.167 3946.46 214.167 3946.46 214.167ZM3970.42 221.833C3970.42 221.833 3969.74 221.333 3968.73 221.667 3967.72 221.833 3974.63 217.5 3977.16 216 3979.69 214.5 3978.68 212.833 3977.33 211 3976.15 209.333 3976.15 209.333 3975.48 208.5 3978.34 208 3980.54 207.833 3983.91 208.167 3988.3 208.5 3993.53 209.833 3996.23 213.5 3997.75 215.5 3989.82 218.5 3987.79 219.667 3985.6 220.667 3979.36 224 3978.01 224.667 3976.66 225.167 3976.15 223.833 3974.63 222.167 3973.11 220.667 3970.42 221.833 3970.42 221.833Z" fill="#0A0A0A" fill-rule="evenodd"/><path d="M4034.91 199.859C4032.88 200.03 4031.7 200.884 4032.04 204.3 4032.54 207.545 4034.57 207.887 4033.89 213.353 4033.22 218.647 4032.04 229.749 4032.04 231.628 4032.04 233.336 4030.52 236.069 4030.18 237.265 4029.68 238.46 4029 242.218 4031.7 242.73 4034.4 243.243 4034.57 239.656 4034.91 238.119 4035.41 236.411 4037.1 222.234 4037.1 220.014 4036.93 217.793 4037.27 212.328 4037.78 210.449 4038.28 208.57 4038.96 206.862 4038.11 204.471 4037.27 202.251 4036.93 199.689 4034.91 199.859 4034.91 199.859 4034.91 199.859 4034.91 199.859ZM4047.9 202.421C4047.06 202.251 4045.54 202.08 4044.86 203.617 4044.02 205.154 4044.86 207.716 4045.54 209.253 4046.05 210.961 4046.55 212.669 4046.38 214.207 4046.05 215.744 4045.88 225.992 4046.89 227.017 4047.73 228.041 4049.42 226.846 4050.43 224.625 4051.45 222.234 4052.12 219.16 4051.45 217.623 4050.94 216.256 4050.94 214.548 4051.78 212.499 4052.63 210.449 4052.12 207.716 4051.45 205.325 4050.77 202.934 4048.75 202.421 4047.9 202.421 4047.9 202.421 4047.9 202.421 4047.9 202.421ZM4064.27 185.342C4063.26 185.171 4061.07 185 4060.39 185.854 4059.55 186.708 4059.21 188.587 4060.05 190.636 4061.07 192.857 4061.24 194.736 4061.07 196.102 4060.9 197.298 4061.24 211.132 4061.24 214.719 4061.24 218.306 4060.73 225.138 4060.9 229.749 4061.07 234.361 4060.9 242.559 4062.59 244.78 4064.44 247 4066.97 243.755 4066.3 241.364 4065.62 239.143 4065.46 239.827 4064.78 235.557 4064.27 231.116 4064.11 208.57 4064.11 206.862 4064.27 204.983 4064.78 198.493 4065.62 196.614 4066.3 194.736 4069 192.686 4068.49 190.466 4068.83 188.416 4065.29 185.683 4064.27 185.342Z" fill="#0A0A0A" fill-rule="evenodd"/><path d="M4118.69 226.883C4120.4 229.779 4126.06 238.637 4131.03 236.763 4136 235.06 4133.94 229.438 4131.89 228.076 4130 226.713 4120.57 222.454 4120.57 222.454 4116.63 220.751 4117.66 225.18 4118.69 226.883 4118.69 226.883 4118.69 226.883 4118.69 226.883ZM4114.06 196.05C4114.57 195.71 4113.37 191.451 4113.54 189.407 4113.71 187.363 4115.26 186 4116.63 186.341 4118 186.681 4120.06 189.918 4119.89 191.451 4119.71 193.155 4118.86 195.028 4118.34 195.71 4117.83 196.221 4117.49 196.902 4117.31 198.606 4117.14 199.628 4116.8 201.161 4116.46 202.694 4118 202.183 4119.37 201.842 4119.89 201.502 4120.91 200.82 4122.8 200.139 4124.34 198.946 4126.06 197.584 4127.77 198.946 4129.66 199.968 4131.37 200.99 4129.83 202.694 4128.11 203.546 4126.23 204.568 4124.69 204.057 4123.49 204.568 4122.46 205.079 4117.66 207.123 4115.26 208.486 4114.74 211.893 4113.37 218.025 4112.34 220.58 4111.31 223.647 4107.2 228.246 4105.14 230.801 4102.91 233.527 4101.71 237.104 4099.49 238.467 4097.26 240 4096.74 238.978 4096.4 237.615 4096.06 236.252 4094 234.549 4095.37 232.845 4096.74 230.972 4097.09 228.927 4098.11 230.801 4098.97 232.505 4100.51 231.483 4100.17 231.483 4099.83 231.312 4104.63 226.202 4106 223.817 4107.54 221.262 4109.26 215.47 4109.94 214.107 4110.11 213.767 4110.46 212.744 4110.8 211.211 4109.6 211.893 4108.4 212.574 4107.54 213.255 4105.66 214.618 4105.31 215.129 4101.89 213.767 4098.46 212.233 4097.6 210.7 4097.43 208.826 4097.09 206.953 4098.11 205.76 4099.14 205.59 4100.34 205.249 4103.09 205.931 4104.97 206.271 4107.03 206.612 4110.97 204.397 4112 204.057 4112 204.057 4112.17 203.886 4112.17 203.886 4113.03 199.968 4113.71 196.221 4114.06 196.05Z" fill="#0A0A0A" fill-rule="evenodd"/><path d="M4166.08 191.931C4166.24 192.44 4166.92 193.797 4167.42 194.306 4168.09 194.985 4169.27 196.172 4169.1 196.681 4169.1 197.36 4168.76 201.432 4168.76 202.45 4168.76 203.468 4168.26 206.183 4168.93 206.861 4169.44 207.54 4170.45 209.406 4170.45 209.406 4170.45 209.406 4171.79 209.746 4172.13 208.728 4172.46 207.54 4173.47 207.879 4173.47 207.879 4173.47 207.879 4175.49 208.728 4174.98 209.237 4174.48 209.746 4174.65 209.915 4173.47 210.594 4172.46 211.273 4163.55 216.193 4163.55 216.193 4163.55 216.193 4160.53 217.041 4159.69 217.211 4158.85 217.38 4157.67 217.041 4157.34 218.229 4157 219.416 4157.34 221.113 4158.18 221.961 4158.68 222.131 4160.7 222.979 4162.55 222.131 4164.9 221.113 4167.08 218.398 4168.76 216.871 4171.79 214.496 4174.48 212.8 4177 211.612 4179.52 210.594 4185.07 207.879 4187.76 207.54 4190.45 207.201 4190.95 208.558 4190.45 209.237 4190.11 210.085 4188.6 211.442 4187.76 211.782 4187.08 212.291 4187.42 213.139 4187.42 213.139 4187.42 213.139 4188.09 213.139 4190.45 212.46 4192.97 211.782 4196.33 211.782 4196.66 210.933 4197 210.255 4195.66 204.995 4192.63 204.825 4189.44 204.656 4185.91 205.504 4185.07 205.843 4184.23 206.013 4183.39 205.334 4184.4 204.316 4185.4 203.129 4186.92 201.771 4187.59 199.566 4188.26 197.19 4189.27 196.681 4188.6 195.663 4187.76 194.645 4186.58 192.609 4186.08 192.27 4185.57 191.931 4186.08 190.743 4187.76 190.064 4189.44 189.216 4191.29 187.35 4190.28 186.162 4189.27 184.805 4187.25 185.483 4187.08 184.296 4187.08 182.938 4186.08 182.26 4187.08 181.92 4188.09 181.581 4189.1 181.242 4188.76 180.733 4188.43 180.054 4187.92 179.036 4187.25 178.018 4186.41 177.17 4184.56 177 4184.4 177.848 4184.06 178.866 4184.06 180.563 4184.06 181.411 4184.06 182.26 4183.89 183.447 4184.4 184.126 4185.07 184.805 4185.24 185.144 4185.07 185.823 4184.9 186.332 4184.9 187.35 4183.72 188.028 4182.38 188.707 4181.71 188.707 4181.37 189.555 4180.87 190.573 4180.87 192.949 4181.37 193.288 4181.71 193.458 4183.05 193.118 4182.71 194.815 4182.21 196.681 4180.19 200.923 4180.36 201.602 4180.53 202.45 4181.87 202.111 4181.87 202.959 4181.87 203.977 4182.38 205.674 4181.71 206.183 4181.03 206.861 4178.85 207.54 4178.85 207.54 4178.85 207.54 4176.5 208.219 4177.17 206.183 4177.67 204.147 4178.18 200.923 4178.34 200.244 4178.34 199.566 4179.02 198.717 4178.01 198.548 4177.17 198.548 4178.18 196.851 4177 197.36 4175.99 197.699 4175.15 198.208 4175.49 196.851 4175.66 195.324 4177.34 190.573 4177.84 187.689 4178.18 184.805 4177.17 184.296 4176.33 183.617 4175.49 183.108 4172.97 184.465 4172.97 185.483 4172.97 186.501 4174.31 188.028 4174.48 189.386 4174.65 190.743 4174.31 195.154 4174.48 195.663 4174.48 196.172 4174.14 199.057 4173.97 199.735 4173.81 200.244 4170.95 202.45 4171.29 200.075 4171.79 197.699 4171.96 194.815 4171.45 193.288 4170.78 191.761 4168.26 189.725 4167.42 189.555 4166.75 189.555 4166.08 191.252 4166.08 191.931 4166.08 191.931 4166.08 191.931 4166.08 191.931ZM4172.63 218.398C4172.63 217.041 4174.31 216.363 4175.49 216.023 4176.5 215.854 4180.53 213.818 4182.38 213.648 4184.23 213.648 4184.23 216.363 4183.72 217.55 4183.22 218.738 4182.21 220.604 4181.54 221.452 4181.03 222.301 4183.72 222.81 4183.72 222.81 4183.72 222.81 4187.92 221.792 4189.6 221.961 4191.12 222.131 4191.45 224.506 4191.12 226.373 4190.78 228.239 4186.24 227.56 4185.24 227.391 4184.23 227.221 4184.9 229.087 4184.56 230.105 4184.4 231.123 4184.4 232.82 4183.55 236.213 4182.71 239.437 4180.36 241.643 4179.02 242.321 4177.5 243 4174.81 241.303 4174.14 240.116 4173.64 238.928 4172.46 239.098 4171.96 237.231 4171.29 235.365 4174.48 236.553 4175.82 237.231 4177 237.74 4179.18 237.74 4180.36 237.401 4181.54 236.892 4182.38 232.65 4182.38 231.123 4182.55 229.427 4181.37 228.239 4180.87 228.069 4180.36 227.9 4178.18 228.918 4176.16 229.936 4174.31 230.954 4172.97 232.141 4171.45 232.481 4169.77 232.82 4167.76 231.123 4167.42 229.427 4167.08 227.73 4171.79 227.56 4172.63 227.391 4173.64 227.221 4179.35 224.506 4179.35 224.506 4179.69 223.149 4180.36 219.586 4178.18 219.247 4176.83 219.077 4175.99 220.943 4174.81 220.943 4173.64 220.943 4172.8 219.756 4172.63 218.398Z" fill="#0A0A0A" fill-rule="evenodd"/></g></svg>