<svg width="647" height="647" xmlns="http://www.w3.org/2000/svg" xmlns:xlink="http://www.w3.org/1999/xlink" xml:space="preserve" overflow="hidden"><defs><clipPath id="clip0"><rect x="670" y="639" width="647" height="647"/></clipPath></defs><g clip-path="url(#clip0)" transform="translate(-670 -639)"><path d="M993.834 639C1167.48 638.967 1316.81 778.779 1317 962.264 1317.19 1146.85 1165.14 1290.23 985.553 1285.9 810.9 1281.7 669.395 1138.21 670.002 962.278 670.629 782.849 815.255 638.822 993.834 639ZM1305.83 963.03C1305.9 791.716 1165.83 650.176 995.966 649.926 822.31 649.675 681.214 789.46 680.943 961.941 680.686 1129.79 815.73 1274.71 993.293 1274.81 1171.57 1274.9 1306.03 1129.16 1305.83 963.03Z" fill="#B92518" fill-rule="evenodd"/><path d="M1306 963.164C1306.19 1129.32 1171.71 1275.09 993.404 1275 815.811 1274.9 680.743 1129.96 681 962.075 681.271 789.561 822.391 649.75 996.077 650 1165.98 650.251 1306.07 791.818 1306 963.164ZM1041.03 1143.91C1038.14 1135.81 1042.73 1132.6 1056.4 1133.14 1051.49 1128.94 1044.37 1128.99 1038.38 1133.28 1032.32 1137.61 1029.72 1146.19 1032.43 1152.93 1034.87 1159 1041.04 1162.18 1048.9 1159.7 1052.48 1158.56 1056.42 1154.73 1057.61 1151.24 1058.5 1148.65 1056.13 1143.3 1053.59 1141.57 1049.39 1138.72 1044.09 1138.72 1040.75 1144.2L1041.03 1143.91ZM990.032 912.71C990.032 891.113 990.13 870.341 989.834 849.568 989.813 848.024 987.161 846.216 985.398 845.036 978.481 840.41 975.352 832.624 977.689 825.18 979.775 818.529 986.778 813.224 993.721 813.052 1000.93 812.867 1008.31 818.199 1010.54 825.213 1012.89 832.643 1009.81 840.244 1002.76 845.049 1001.01 846.243 998.434 848.084 998.407 849.661 998.117 870.42 998.216 891.186 998.216 912.71 1008 912.71 1016.91 912.678 1025.82 912.717 1035.98 912.763 1039.03 915.634 1039.49 925.756 1040.95 957.357 1042.35 988.964 1043.77 1020.56 1044.7 1041.11 1044.61 1061.76 1046.87 1082.16 1049.51 1105.97 1049.1 1101.05 1070.11 1101.08 1070.34 1101.08 1070.56 1100.88 1071.18 1100.58L1067.93 1091.12C1075.59 1106.1 1088.43 1100.57 1101.36 1101.26 1089.61 1086.82 1084.47 1071.68 1083.29 1055.36 1080.91 1022.77 1079.17 990.119 1077.02 957.502 1075.65 936.736 1074.59 915.924 1072.24 895.257 1070.81 882.654 1064.36 878.246 1051.77 878.2 1049.13 878.193 1046.46 877.949 1043.86 878.246 1038.33 878.886 1035.63 877.184 1035.58 871.054 1035.51 862.37 1034.72 853.68 1034.06 845.009 1032.31 821.94 1028.7 817.447 1006.63 810.485 1005.98 810.28 1005.43 809.746 1003.42 808.453 1010.59 808.09 1016.29 808.215 1021.87 807.41 1028.74 806.414 1031.66 801.617 1032.43 795.685 1025.41 796.179 1018.95 797.136 1012.51 796.952 1005.59 796.753 1000.8 798.68 998.388 805.595 997.826 807.205 995.51 809.548 994.46 809.331 992.678 808.96 990.507 807.126 989.827 805.384 987.338 799.05 983.049 796.76 976.33 796.944 969.643 797.13 962.924 796.192 955.849 795.717 958.462 812.696 973.61 805.76 983.517 808.822 983.102 809.542 983.029 809.878 982.857 809.931 981.365 810.446 979.88 811.026 978.343 811.369 964.41 814.523 955.954 822.508 955.097 837.361 954.641 845.253 954.007 853.132 953.486 861.017 952.357 878.028 952.364 878.028 935.361 878.187 924.735 878.292 919.276 882.245 916.412 892.447 915.341 896.254 914.679 900.164 914.438 904.113 911.66 950.957 909.185 997.82 906.208 1044.64 904.981 1064.01 901.548 1082.92 888.876 1098.75 888.487 1099.24 888.639 1100.16 888.499 1101.13 900.195 1101.03 912.914 1105.31 920.313 1091.4L916.914 1100.84C940.186 1101.65 938.661 1104.28 940.661 1085.9 943.479 1060 943.935 1033.84 945.189 1007.78 946.503 980.399 947.539 952.995 948.76 925.604 949.209 915.515 952.238 912.73 962.535 912.691 971.227 912.684 979.94 912.71 990.032 912.71ZM988.322 1069.76 988.322 1060.67C988.322 1020.06 988.348 979.443 988.276 938.828 988.24 934.623 987.895 930.426 987.246 926.271 986.223 919.415 981.662 916.518 975.075 916.241 964.917 915.812 959.466 922.173 959.122 935.311 958.727 950.33 958.554 965.361 958.304 980.379 957.836 1008.3 956.621 1036.25 957.162 1064.16 957.598 1086.58 971.973 1099.95 993.655 1100.78 1013.88 1101.56 1027.94 1089.54 1031.49 1068.13 1032.32 1063.19 1032.68 1058.19 1032.58 1053.19 1031.83 1020.26 1030.99 987.341 1029.98 954.414 1029.68 944.721 1029.59 934.896 1027.86 925.407 1026.47 917.798 1019.83 915.554 1012.48 916.333 1005.28 917.092 1001.83 921.46 1001.34 928.415 1001.11 931.835 1000.99 935.262 1000.99 938.689 1000.97 979.04 1000.98 1019.39 1000.97 1059.75 1000.97 1070.97 1000.96 1070.97 988.322 1069.76ZM895.357 1141.89C777.668 1074.65 758.27 925.598 837.037 832.102 913.224 741.662 1049.8 733.453 1133.57 814.57 1176.56 856.187 1199.16 907.069 1197.41 966.78 1195.14 1043.68 1158.03 1101.18 1092.6 1141.42L1096.39 1148.48C1175.21 1106.43 1225.42 1010.14 1199.97 910.328 1174.24 809.449 1081 742.863 976.963 750.207 875.504 757.373 792.288 838.14 781.707 941.375 771.127 1044.56 835.565 1121.9 891.978 1148.43L895.357 1141.89ZM747.254 850.426 737.142 857.883C740.245 861.024 742.844 865.214 746.587 867.022 751.175 869.239 756.706 870.024 761.887 870.315 764.408 870.453 767.068 868.058 771.22 866.065 751.003 856.009 746.079 834.398 759.827 817.915L766.566 831.455 756.923 835.612C759.028 837.15 761.57 838.344 763.127 840.311 764.691 842.291 765.326 845.028 766.289 847.464 767.2 849.74 768.018 852.056 768.876 854.346L771.285 853.442C771.715 850.598 772.302 847.781 772.533 844.923 773.002 839.05 774.665 835.025 781.192 832.505 784.809 831.106 787.515 825.266 788.981 820.878 791.561 813.124 792.868 804.949 795.026 795.592 789.641 788.829 773.774 788.281 764.823 797.175 749.788 812.122 742.138 829.832 747.254 850.426ZM774.823 1107.87 756.91 1116.44 767.081 1132.66C768.87 1124.1 792.571 1108.9 801.283 1110.01L791.621 1094.62 777.582 1106.18 769.999 1094.09 787.12 1087.33 778.097 1073.17C767.517 1082.67 756.719 1090.35 743.142 1094.4L751.893 1108.38C757.167 1104.29 762.15 1100.42 767.603 1096.18L774.823 1107.87ZM1159.43 1140.26C1168.11 1139.62 1188.96 1156.77 1191.56 1165.9L1203.35 1151.84 1188.75 1142.78 1189.83 1140.49C1195.17 1141.57 1200.77 1144.15 1205.79 1143.29 1210.45 1142.48 1214.49 1138.02 1220.05 1134.35L1196.52 1130.64C1197.14 1129.98 1197.76 1129.32 1198.37 1128.66 1195.67 1124.43 1193.91 1118.48 1190.05 1116.36 1183.94 1113.02 1178.66 1117.71 1174.52 1122.5 1169.73 1128.05 1165.01 1133.68 1159.43 1140.26ZM1147.97 1200.92 1175.45 1178.63 1170.11 1169C1170.89 1176.9 1168.75 1184.19 1161.3 1185.5 1157.87 1186.1 1153.17 1179.37 1149.05 1175.97L1150.37 1173.55 1160.09 1173.55C1156.15 1168.72 1153.06 1164.92 1149.94 1161.1L1149.45 1171.57 1147.19 1172.05 1137.63 1160.75C1142.47 1154.68 1147.43 1150.66 1155.58 1154.15L1149.43 1146.94 1122.19 1168.97C1131.52 1170.25 1148.95 1192.04 1147.97 1200.92ZM909.772 1189.98 902.499 1209.85 900.328 1209.48C898.816 1203.74 896.571 1198.07 895.965 1192.23 894.856 1181.5 887.417 1178.69 878.566 1176.13 881.2 1184.08 869.689 1209.01 861.808 1212.9L870.606 1216.62C869.86 1205.1 876.903 1197.37 881.305 1187.28 887.08 1201.64 887.246 1216.16 894.552 1229.32 904.01 1217.37 904.882 1202.22 916.28 1192.91L909.772 1189.98ZM1006.86 1215.42 1008.76 1214.56C1013.94 1219.3 1018.83 1224.39 1024.39 1228.64 1029.81 1232.8 1033.08 1240.45 1041.51 1240.74 1043.06 1226.55 1034.63 1213.53 1040.07 1199.62 1037.12 1200.13 1034.1 1200.66 1033.01 1200.86L1037.29 1221.21 1035.29 1222.03C1031.25 1218.39 1026.58 1215.24 1023.3 1211 1016.87 1202.7 1009.17 1202.53 1001.24 1205.5 1006.05 1218.35 1007.87 1231.45 1006.95 1245.49L1012.32 1244.87 1006.86 1215.42ZM1219.8 1115.1 1228.15 1119.82C1230.04 1117.02 1231.61 1114.6 1233.3 1112.26 1234.83 1110.13 1236.76 1108.26 1238.07 1106 1241.98 1099.27 1241.22 1091.28 1236.28 1087.2 1230.2 1082.18 1224.12 1083.48 1218.26 1087.75 1215.69 1089.59 1213.42 1092.03 1210.6 1093.26 1208.34 1094.24 1205.46 1093.79 1202.85 1093.97 1203.04 1091.08 1202.09 1086.97 1203.62 1085.57 1207.19 1082.31 1211.95 1080.35 1216.17 1077.91L1209.43 1074.12C1206.41 1077.87 1203.46 1081.24 1200.85 1084.84 1196.35 1091.06 1196.44 1099.3 1200.8 1103.74 1205.45 1108.46 1211.33 1108.31 1218.62 1103.27 1221.43 1101.32 1223.98 1098.73 1227.09 1097.58 1229.6 1096.65 1232.74 1097.43 1235.61 1097.44 1235.44 1100.39 1236.41 1104.74 1234.85 1106.03 1230.39 1109.71 1224.9 1112.15 1219.8 1115.1ZM712.015 954.143C711.295 960.359 710.299 965.724 710.134 971.102 709.936 977.951 712.438 983.672 719.665 985.684 726.925 987.703 732.562 984.53 736.126 976.909 737.572 973.807 738.43 970.343 740.337 967.591 741.597 965.77 744.257 964.913 746.29 963.619 747.663 966.159 750.692 969.254 750.072 971.142 748.535 975.794 745.32 979.891 743.03 983.791L751.122 983.791C751.59 977.555 752.521 971.675 752.329 965.836 752.132 959.785 748.825 955.345 742.495 954.163 736.238 952.995 731.77 955.556 729.103 961.356 727.235 965.414 725.605 969.663 723.13 973.325 721.889 975.166 718.213 977.423 717.051 976.81 714.952 975.695 712.207 972.039 712.728 970.396 714.556 964.609 717.665 959.217 720.068 954.13 718.596 954.143 715.216 954.143 712.015 954.143ZM821.95 1131.98 809.178 1118.36C807.224 1121.66 806.016 1124.77 803.904 1127.03 799.779 1131.45 794.987 1135.24 790.782 1139.58 784.691 1145.89 784.48 1151.59 789.621 1158.65 797.376 1169.27 805.6 1170.21 815.375 1161.53 818.913 1158.38 822.114 1154.82 825.87 1151.96 828.701 1149.81 832.167 1148.48 835.632 1146.62L829.038 1139.59C828.008 1146.97 811.62 1164.52 804.973 1164.66 801.877 1164.72 797.654 1162.67 795.95 1160.18 794.651 1158.29 795.449 1153.32 797.172 1151.3 801.765 1145.93 807.177 1141.2 812.65 1136.68 815.177 1134.61 818.59 1133.63 821.95 1131.98ZM1215.75 831.396C1210.78 835.039 1211.11 837.295 1216.67 841.446 1222.95 846.144 1229.23 850.941 1234.93 856.319 1238.06 859.269 1239.98 863.492 1243.18 868.23L1235.19 867.761 1240.28 876.755C1251.3 872.209 1243.44 865.379 1242.88 861.301L1261.07 858.622 1260.77 856.748 1266.11 859.645 1276.89 851.212C1268.27 851.008 1260.82 852.083 1253.4 853.376 1249.98 853.97 1246.66 855.455 1243.24 855.64 1241.25 855.745 1239.17 854.082 1235.61 852.571L1250.76 847.781 1243.59 842.363C1247.71 839.301 1255.24 840.713 1254.17 832.597 1249.25 834.907 1244.82 837.341 1240.14 839.077 1235.59 840.766 1230.58 841.598 1235.38 849.536 1234.51 849.451 1233.65 849.363 1232.78 849.272L1215.75 831.396ZM1069.61 749.534C1082.08 741.609 1094.86 737.822 1102.82 726.241 1104.76 723.423 1109.31 721.661 1112.96 720.949 1117.58 720.051 1122.51 720.731 1127.76 720.731 1125.1 710.582 1116.76 717.669 1111.58 713.406 1114.28 710.351 1117.63 707.653 1119.38 704.155 1120.44 702.037 1118.99 698.671 1118.68 695.874 1116.91 697.372 1114.97 698.718 1113.45 700.433 1112.65 701.337 1112.69 702.934 1112.14 704.116 1107.07 714.983 1103.08 716.264 1092.39 710.925 1090.8 710.127 1087.35 709.784 1086.94 710.49 1085.92 712.251 1085.13 715.861 1086.07 716.739 1089.32 719.728 1093.36 721.859 1098.68 725.37 1091.64 730.015 1084.21 738.87 1077.09 738.639 1067.23 738.309 1069.86 742.341 1069.61 749.534ZM952.648 1201.7C952.245 1210.63 952.126 1219.02 951.427 1227.37 950.496 1238.5 954.899 1243.97 966.396 1245.15 977.075 1246.25 982.626 1241.73 983.999 1230.99 985.114 1222.26 986.375 1213.53 987.583 1204.73L981.94 1204.73C983.887 1216.2 983.385 1227.48 979.029 1238.19 978.144 1240.38 973.366 1242.18 970.527 1241.99 968.191 1241.84 964.132 1238.42 964.172 1236.53 964.41 1225.33 962.924 1213.73 968.957 1203.32L952.648 1201.7ZM821.56 1186.88C825.302 1183.68 828.081 1179.41 830.932 1179.36 833.83 1179.3 838.635 1183.01 839.235 1185.79 839.855 1188.66 836.411 1192.41 834.464 1196.33L847.802 1205.96C849.103 1190.08 856.792 1176.16 856.871 1158.92L816.821 1183.43C818.834 1184.9 820.94 1186.43 821.56 1186.88ZM771.364 1064.06C770.777 1059.75 770.256 1056.05 769.781 1052.34 768.527 1042.52 761.398 1035.02 752.059 1033.73 743.023 1032.49 732.271 1038.34 728.602 1046.52 724.952 1054.65 727.315 1065.34 734.344 1070.88 736.423 1072.52 739.188 1073.28 741.643 1074.46 740.93 1072.19 739.565 1071.47 738.317 1070.58 729.288 1064.14 729.466 1055.94 739.439 1051 744.944 1048.29 751.326 1046.7 757.451 1046.16 760.296 1045.92 764.963 1048.77 766.084 1051.4 767.371 1054.4 765.899 1058.74 765.107 1062.4 764.811 1063.77 763.061 1064.81 760.567 1067.55L771.364 1064.06ZM1234.82 988.463C1247.89 983.203 1258.19 968.535 1275.28 978.407L1275.28 960.155C1259.39 968.033 1248.14 957.687 1235.32 950.409L1234.63 958.268 1236.02 956.215 1253.13 963.151 1253 965.215 1234.82 973.424 1234.82 988.463ZM1271.89 1013.2C1258.11 1015.81 1246.66 1009.16 1231.58 1007.22L1241.61 996.519C1238.39 996.176 1234 996.902 1233.48 998.73 1230.46 1009.24 1228.36 1020.01 1225.86 1031.1L1233.23 1033.16 1229.6 1021.39 1231.91 1019.48C1243.35 1024.64 1257.05 1022.19 1267.67 1031.55 1269.08 1025.37 1270.49 1019.28 1271.89 1013.2ZM1081.06 1189.57 1118.13 1219.68 1114.65 1171.73 1106.97 1175.86C1112.68 1178.88 1115.14 1189.89 1112.26 1200.14L1094.06 1182.65 1081.06 1189.57ZM1259.86 1056.29C1251.52 1059.09 1225.73 1049.44 1221.35 1042.29 1218.89 1048.77 1216.55 1054.9 1214.82 1059.47 1229.19 1061.05 1241.37 1066.46 1253.16 1073.8 1255.09 1068.74 1257.24 1063.12 1259.86 1056.29ZM757.761 1017.45 754.019 996.757C748.732 1003.25 722.74 1008.4 714.259 1004.9 714.787 1008.28 715.21 1011.33 715.751 1014.38 716.332 1017.66 717.025 1020.93 717.783 1024.79 722.958 1017.89 749.604 1012.83 757.761 1017.45ZM1082.18 1231.4C1075.27 1218.93 1071.17 1206.21 1071.16 1191.87L1053.48 1197.06C1059.98 1202.85 1067.4 1228.34 1064.63 1236.25 1071.08 1234.46 1077.06 1232.81 1082.18 1231.4ZM973.953 1144.92C969.505 1148.12 964.779 1150.77 968.944 1156.53 972.455 1161.4 986.87 1161.71 991.728 1157.29 996.308 1153.11 995.43 1149.3 990.13 1144.35L990.83 1132.24C984.56 1132.31 977.458 1130.54 972.237 1132.93 966.112 1135.72 970.977 1140.87 973.953 1144.92ZM1017.44 1147.76 1019.07 1149.35C1016.73 1151.92 1014.83 1155.48 1011.92 1156.76 1008.81 1158.15 1004.74 1157.38 1000.08 1157.6 1008.75 1161.79 1016.58 1160.58 1021.71 1154.94 1026.66 1149.5 1027.48 1139.69 1023.42 1134.46 1019.88 1129.9 1011.22 1128.57 1005.28 1131.56 999.503 1134.46 998.335 1139.42 1000.04 1144.88 1001.8 1150.51 1006.78 1150.92 1011.73 1150.05 1013.71 1149.69 1015.54 1148.55 1017.44 1147.76ZM923.659 751.341 926.861 750.029C926.095 747.64 925.593 745.126 924.517 742.882 915.752 724.637 903.053 707.864 904.089 686.002 904.175 684.24 901.397 681.529 899.371 680.724 897.661 680.051 895.099 681.508 892.915 682.023 893.404 684.089 893.621 686.273 894.44 688.2 895.661 691.07 897.502 693.677 898.73 696.541 905.034 711.275 911.125 726.109 917.521 740.804 919.131 744.512 921.587 747.838 923.659 751.341ZM1199.29 857.626 1197.12 857.137C1196.7 860.515 1194.92 864.66 1196.27 867.028 1197.45 869.094 1202.12 869.285 1205.31 870.05 1206.53 870.348 1207.92 870.018 1209.22 869.853 1212.61 869.424 1216.09 868.342 1217.22 873.443 1217.4 874.307 1220.01 874.637 1221.5 875.217 1222.05 873.561 1223.16 871.872 1223.03 870.269 1222.87 867.952 1221.8 865.709 1221.52 864.792 1225.48 863.023 1230.61 861.189 1230.49 860.713 1229.28 856.075 1226.92 851.997 1220.08 851.278L1223.13 859.156C1212.28 862.733 1212.47 850.987 1206.1 847.912 1200.37 856.992 1213.25 858.226 1212.8 864.561 1204.77 870.473 1201.58 868.836 1199.29 857.626ZM883.978 763.892 886.962 763.258C886.803 760.091 887.199 756.773 886.388 753.777 884.19 745.681 881.517 737.703 878.949 729.712 877.358 724.756 875.953 719.688 873.735 715.016 873.022 713.505 869.992 713.096 868.019 712.192 868.045 714.508 867.425 717.102 868.256 719.081 869.531 722.137 872.607 724.551 873.503 727.646 876.401 737.676 878.586 747.911 881.22 758.02 881.754 760.085 883.041 761.946 883.978 763.892ZM940.464 1133.7C948.331 1138.71 947.909 1154.69 940.767 1159.49L957.406 1159.49C949.103 1150.86 956.219 1139.79 952.476 1130.05L940.464 1133.7ZM1103.83 738.369 1100.07 740.243C1101.74 746.367 1102.92 752.701 1105.38 758.488 1106.12 760.25 1110.4 760.507 1113.06 761.451 1113.93 758.713 1116.36 755.057 1115.39 753.4 1112.2 747.996 1107.78 743.324 1103.83 738.369ZM896.756 738.323C899.416 730.946 894.677 712.47 889.998 709.421 888.539 708.47 886.097 708.47 884.295 708.873 883.536 709.038 882.434 711.797 882.883 712.661 887.114 720.896 891.648 728.979 896.756 738.323Z" fill="#FFFFFF" fill-rule="evenodd"/><path d="M989.606 912.374C979.507 912.374 970.789 912.347 962.085 912.381 951.781 912.42 948.75 915.214 948.3 925.335 947.078 952.814 946.048 980.299 944.727 1007.78 943.479 1033.92 943.023 1060.17 940.196 1086.15 938.195 1104.58 939.721 1101.94 916.433 1101.14L919.834 1091.66C912.431 1105.61 899.703 1101.33 888 1101.43 888.138 1100.45 887.986 1099.53 888.376 1099.04 901.058 1083.16 904.491 1064.18 905.72 1044.76 908.693 997.775 911.169 950.762 913.956 903.775 914.203 899.816 914.865 895.893 915.931 892.072 918.804 881.837 924.259 877.872 934.893 877.766 951.907 877.607 951.9 877.607 953.029 860.542 953.557 852.631 954.185 844.721 954.641 836.81 955.506 821.902 963.96 813.892 977.902 810.735 979.435 810.391 980.927 809.808 982.42 809.292 982.592 809.233 982.664 808.902 983.08 808.18 973.167 805.115 958.003 812.066 955.393 795.033 962.474 795.503 969.198 796.45 975.888 796.264 982.619 796.079 986.905 798.376 989.395 804.731 990.082 806.478 992.255 808.319 994.032 808.69 995.081 808.908 997.4 806.558 997.961 804.943 1000.36 798.005 1005.17 796.072 1012.1 796.271 1018.53 796.456 1025 795.497 1032.02 795 1031.26 800.945 1028.33 805.764 1021.45 806.763 1015.88 807.578 1010.17 807.445 1002.99 807.809 1005.01 809.107 1005.56 809.642 1006.21 809.848 1028.29 816.832 1031.91 821.34 1033.66 844.482 1034.33 853.181 1035.12 861.899 1035.18 870.61 1035.22 876.767 1037.93 878.468 1043.46 877.825 1046.07 877.528 1048.74 877.766 1051.38 877.78 1063.97 877.833 1070.43 882.254 1071.87 894.891 1074.21 915.618 1075.28 936.503 1076.65 957.335 1078.8 990.057 1080.54 1022.8 1082.92 1055.51 1084.11 1071.88 1089.24 1087.08 1101 1101.55 1088.06 1100.86 1075.22 1106.41 1067.55 1091.38L1070.8 1100.87C1070.18 1101.17 1069.96 1101.37 1069.73 1101.37 1048.7 1101.34 1049.12 1106.28 1046.48 1082.39 1044.21 1061.93 1044.31 1041.21 1043.38 1020.6 1041.94 988.898 1040.54 957.189 1039.09 925.488 1038.63 915.34 1035.57 912.461 1025.41 912.407 1016.49 912.367 1007.58 912.4 997.79 912.4 997.79 890.807 997.69 869.975 997.981 849.15 998.007 847.567 1000.59 845.72 1002.34 844.522 1009.38 839.702 1012.47 832.077 1010.12 824.623 1007.89 817.586 1000.51 812.237 993.292 812.423 986.343 812.601 979.336 817.917 977.249 824.59 974.911 832.058 978.041 839.869 984.963 844.509 986.733 845.694 989.382 847.501 989.402 849.057 989.705 869.869 989.606 890.708 989.606 912.374Z" fill="#B92518" fill-rule="evenodd"/><path d="M988.054 1069.88C1000.6 1071.09 1000.61 1071.09 1000.61 1059.85 1000.63 1019.42 1000.61 978.984 1000.63 938.547 1000.64 935.115 1000.75 931.677 1000.99 928.252 1001.46 921.284 1004.89 916.906 1012.04 916.146 1019.33 915.366 1025.92 917.614 1027.3 925.238 1029.02 934.738 1029.11 944.59 1029.4 954.303 1030.4 987.289 1031.24 1020.28 1031.98 1053.27 1032.08 1058.29 1031.72 1063.3 1030.91 1068.24 1027.38 1089.7 1013.43 1101.74 993.354 1100.97 971.834 1100.13 957.574 1086.74 957.135 1064.26 956.598 1036.3 957.803 1008.3 958.269 980.32 958.517 965.272 958.688 950.21 959.081 935.162 959.422 922.004 964.832 915.624 974.913 916.054 981.451 916.332 985.978 919.234 986.993 926.103 987.609 930.255 988.002 934.487 988.015 938.686 988.087 979.382 988.061 1020.08 988.061 1060.77L988.054 1069.88Z" fill="#B92518" fill-rule="evenodd"/><path d="M895.316 1141.34 891.929 1147.88C835.494 1121.33 771.036 1043.93 781.614 940.678 792.205 837.371 875.455 756.548 976.955 749.378 1081.03 742.028 1174.32 808.661 1200.06 909.61 1225.51 1009.49 1175.29 1105.85 1096.44 1147.93L1092.65 1140.86C1158.1 1100.59 1195.23 1043.05 1197.49 966.101 1199.25 906.348 1176.64 855.431 1133.64 813.785 1049.83 732.618 913.191 740.832 836.973 831.329 758.18 924.89 777.586 1074.05 895.316 1141.34ZM747.153 849.666C742.036 829.058 749.682 811.335 764.73 796.385 773.684 787.484 789.557 788.032 794.945 794.8 792.786 804.157 791.479 812.338 788.897 820.104 787.437 824.495 784.724 830.339 781.105 831.739 774.582 834.268 772.918 838.289 772.443 844.166 772.212 847.025 771.624 849.845 771.194 852.691L768.784 853.595C767.926 851.297 767.107 848.986 766.196 846.708 765.226 844.272 764.598 841.532 763.033 839.55 761.475 837.583 758.932 836.388 756.827 834.849L766.474 830.689 759.731 817.139C745.978 833.641 750.904 855.259 771.128 865.322 766.975 867.316 764.314 869.72 761.792 869.575 756.609 869.285 751.076 868.499 746.486 866.28 742.742 864.471 740.141 860.271 737.037 857.135L747.153 849.666ZM782.393 795.659C769.411 798.564 764.638 806.198 759.956 815.858 774.225 813.428 767.709 824.673 770.35 829.744 787.074 822.87 778.603 808.509 782.393 795.659ZM774.734 1107.29 767.496 1095.6 751.782 1107.81 743.026 1093.81C756.615 1089.77 767.411 1082.09 777.995 1072.57L787.022 1086.74 769.893 1093.51C772.766 1098.07 774.766 1101.28 777.48 1105.6 782.393 1101.56 786.691 1098.03 791.525 1094.04L801.192 1109.44C792.482 1108.33 768.771 1123.54 766.975 1132.11L756.8 1115.87 774.734 1107.29ZM1159.5 1139.71C1165.08 1133.12 1169.8 1127.48 1174.6 1121.92 1178.74 1117.13 1184.02 1112.43 1190.14 1115.78 1194 1117.89 1195.76 1123.86 1198.46 1128.09L1196.61 1130.06 1220.15 1133.78C1214.58 1137.46 1210.55 1141.92 1205.88 1142.72 1200.86 1143.59 1195.26 1141.01 1189.91 1139.93L1188.84 1142.22 1203.44 1151.28 1191.65 1165.35C1189.04 1156.23 1168.18 1139.06 1159.5 1139.71ZM1172.48 1127.94 1185.76 1138.81C1190.38 1133.55 1187.89 1130.24 1184.59 1127.25 1181.12 1124.1 1177.41 1122.84 1172.48 1127.94ZM1148.03 1200.41C1149.02 1191.51 1131.58 1169.72 1122.24 1168.44L1149.5 1146.39 1155.64 1153.61C1147.5 1150.11 1142.54 1154.13 1137.69 1160.2L1147.25 1171.51 1149.51 1171.04 1150.01 1160.55C1153.13 1164.38 1156.22 1168.17 1160.16 1173.02L1150.43 1173.02 1149.11 1175.44C1153.23 1178.84 1157.94 1185.57 1161.36 1184.97 1168.82 1183.66 1170.96 1176.37 1170.18 1168.46L1175.53 1178.1 1148.03 1200.41ZM909.738 1189.45 916.249 1192.39C904.845 1201.69 903.973 1216.86 894.511 1228.82 887.202 1215.65 887.036 1201.11 881.259 1186.75 876.855 1196.84 869.809 1204.58 870.555 1216.1L861.754 1212.39C869.638 1208.49 881.153 1183.54 878.519 1175.59 887.373 1178.16 894.815 1180.96 895.924 1191.71 896.525 1197.55 898.776 1203.21 900.289 1208.97L902.461 1209.34 909.738 1189.45ZM1006.86 1214.92 1012.33 1244.37 1006.97 1245C1007.88 1230.95 1006.05 1217.84 1001.25 1204.98 1009.18 1202.01 1016.88 1202.18 1023.32 1210.48 1026.6 1214.72 1031.27 1217.88 1035.31 1221.53L1037.31 1220.7 1033.03 1200.34 1040.09 1199.1C1034.65 1213.01 1043.09 1226.05 1041.54 1240.25 1033.11 1239.96 1029.84 1232.29 1024.4 1228.14 1018.85 1223.88 1013.95 1218.79 1008.77 1214.05L1006.86 1214.92ZM1219.89 1114.52C1224.99 1111.58 1230.48 1109.13 1234.95 1105.43 1236.5 1104.15 1235.53 1099.8 1235.7 1096.84 1232.83 1096.82 1229.69 1096.05 1227.17 1096.98 1224.07 1098.14 1221.52 1100.72 1218.7 1102.67 1211.41 1107.72 1205.53 1107.86 1200.88 1103.14 1196.51 1098.7 1196.42 1090.46 1200.93 1084.23 1203.54 1080.63 1206.49 1077.26 1209.51 1073.5L1216.25 1077.29C1212.03 1079.74 1207.27 1081.7 1203.7 1084.96 1202.17 1086.36 1203.11 1090.49 1202.93 1093.36 1205.54 1093.19 1208.42 1093.64 1210.68 1092.66 1213.5 1091.43 1215.78 1088.99 1218.34 1087.14 1224.22 1082.87 1230.29 1081.56 1236.37 1086.59 1241.32 1090.66 1242.07 1098.67 1238.16 1105.41 1236.86 1107.67 1234.93 1109.54 1233.39 1111.67 1231.7 1114.01 1230.13 1116.44 1228.24 1119.24L1219.89 1114.52ZM711.9 953.456 719.949 953.456C717.545 958.547 714.443 963.941 712.607 969.732 712.084 971.377 714.832 975.035 716.932 976.151 718.094 976.765 721.771 974.507 723.013 972.665 725.489 968.993 727.12 964.747 728.988 960.687 731.662 954.882 736.133 952.32 742.386 953.488 748.711 954.664 752.019 959.108 752.224 965.17 752.415 971.014 751.484 976.89 751.016 983.137L742.92 983.137C745.212 979.235 748.427 975.134 749.966 970.479 750.587 968.59 747.556 965.493 746.182 962.951 744.149 964.239 741.488 965.097 740.226 966.926 738.318 969.68 737.467 973.146 736.013 976.25 732.448 983.877 726.81 987.053 719.546 985.032 712.309 983.018 709.807 977.294 710.011 970.439 710.183 965.044 711.18 959.676 711.9 953.456ZM821.879 1131.41C818.518 1133.07 815.104 1134.05 812.588 1136.13 807.115 1140.65 801.7 1145.38 797.104 1150.75 795.381 1152.77 794.582 1157.75 795.883 1159.65 797.587 1162.13 801.812 1164.19 804.909 1164.12 811.559 1163.99 827.953 1146.42 828.983 1139.04L835.58 1146.07C832.107 1147.93 828.647 1149.26 825.814 1151.42 822.057 1154.29 818.855 1157.85 815.316 1160.99 805.536 1169.68 797.309 1168.75 789.551 1158.11 784.407 1151.06 784.612 1145.34 790.713 1139.03 794.919 1134.68 799.713 1130.89 803.839 1126.47 805.946 1124.2 807.154 1121.1 809.115 1117.8L821.879 1131.41ZM1215.84 830.623 1232.88 848.511 1235.47 848.775C1230.67 840.825 1235.68 839.993 1240.23 838.309 1244.92 836.572 1249.35 834.136 1254.28 831.825 1255.34 839.953 1247.81 838.54 1243.69 841.597L1250.87 847.019 1235.71 851.812C1239.27 853.325 1241.35 854.989 1243.35 854.883 1246.77 854.698 1250.09 853.212 1253.51 852.618 1260.93 851.324 1268.38 850.248 1277 850.453L1266.22 858.892 1260.88 855.993 1261.18 857.868 1242.98 860.549C1243.55 864.63 1251.41 871.457 1240.38 876.014L1235.28 867.013 1243.28 867.482C1240.08 862.741 1238.16 858.515 1235.02 855.563 1229.33 850.181 1223.05 845.381 1216.76 840.68 1211.2 836.526 1210.87 834.274 1215.84 830.623ZM1069.64 748.704C1069.89 741.506 1067.26 737.471 1077.12 737.795 1084.24 738.026 1091.67 729.165 1098.72 724.516 1093.39 721.003 1089.35 718.877 1086.1 715.879 1085.15 715.001 1085.95 711.389 1086.97 709.626 1087.38 708.92 1090.83 709.263 1092.43 710.062 1103.12 715.404 1107.11 714.123 1112.18 703.247 1112.73 702.065 1112.69 700.467 1113.49 699.562 1115.02 697.846 1116.95 696.499 1118.72 695 1119.04 697.806 1120.49 701.167 1119.43 703.287 1117.68 706.786 1114.33 709.48 1111.62 712.545 1116.81 716.81 1125.15 709.719 1127.81 719.874 1122.55 719.874 1117.62 719.194 1113 720.092 1109.35 720.799 1104.8 722.568 1102.86 725.388 1094.9 736.983 1082.11 740.773 1069.64 748.704ZM952.63 1201.19 968.946 1202.81C962.911 1213.22 964.403 1224.83 964.159 1236.04 964.119 1237.93 968.18 1241.36 970.517 1241.51 973.357 1241.69 978.138 1239.89 979.022 1237.7 983.387 1226.98 983.888 1215.7 981.934 1204.21L987.58 1204.21C986.371 1213.03 985.11 1221.76 983.994 1230.5 982.621 1241.24 977.068 1245.77 966.384 1244.66 954.882 1243.47 950.478 1238.01 951.409 1226.87 952.109 1218.52 952.227 1210.11 952.63 1201.19ZM821.49 1186.35 816.748 1182.9 856.815 1158.37C856.736 1175.63 849.05 1189.56 847.742 1205.45L834.398 1195.81C836.346 1191.88 839.793 1188.14 839.172 1185.27 838.571 1182.48 833.764 1178.78 830.865 1178.83 828.006 1178.89 825.226 1183.15 821.49 1186.35ZM771.273 1063.45 760.478 1066.94C762.974 1064.2 764.724 1063.15 765.021 1061.79 765.813 1058.13 767.285 1053.78 765.997 1050.78 764.875 1048.16 760.208 1045.29 757.361 1045.54 751.234 1046.07 744.849 1047.66 739.342 1050.38 729.365 1055.32 729.186 1063.52 738.22 1069.97 739.467 1070.86 740.834 1071.58 741.547 1073.85 739.091 1072.68 736.324 1071.91 734.244 1070.27 727.212 1064.72 724.849 1054.03 728.5 1045.89 732.171 1037.71 742.927 1031.85 751.967 1033.1 761.31 1034.38 768.441 1041.89 769.695 1051.72 770.158 1055.43 770.686 1059.13 771.273 1063.45ZM1234.91 987.799 1234.91 972.757 1253.1 964.543 1253.24 962.476 1236.12 955.536 1234.73 957.589 1235.42 949.725C1248.23 957.015 1259.5 967.362 1275.39 959.478L1275.39 977.742C1258.29 967.864 1247.99 982.536 1234.91 987.799ZM1272 1012.55 1267.76 1030.91C1257.14 1021.55 1243.44 1023.99 1231.99 1018.83L1229.68 1020.74 1233.31 1032.52 1225.94 1030.46C1228.44 1019.36 1230.54 1008.58 1233.56 998.067 1234.09 996.238 1238.47 995.512 1241.7 995.855L1231.66 1006.56C1246.76 1008.51 1258.21 1015.17 1272 1012.55ZM1081.1 1189.04 1094.1 1182.12 1112.31 1199.62C1115.2 1189.37 1112.73 1178.35 1107.01 1175.33L1114.7 1171.2 1118.18 1219.18 1081.1 1189.04ZM1259.96 1055.67 1253.26 1073.18C1241.47 1065.84 1229.27 1060.43 1214.9 1058.85L1221.44 1041.66C1225.83 1048.82 1251.63 1058.48 1259.96 1055.67ZM757.665 1016.81C749.504 1012.19 722.847 1017.25 717.664 1024.16 716.905 1020.29 716.218 1017.02 715.63 1013.73 715.09 1010.69 714.666 1007.63 714.139 1004.25 722.623 1007.74 748.626 1002.6 753.914 996.099L757.665 1016.81ZM1082.21 1230.9 1064.67 1235.76C1067.44 1227.84 1060.01 1202.33 1053.51 1196.54L1071.2 1191.35C1071.2 1205.69 1075.31 1218.43 1082.21 1230.9Z" fill="#B92518" fill-rule="evenodd"/><path d="M973.224 1144.84C970.238 1140.79 965.377 1135.62 971.506 1132.83 976.732 1130.46 983.841 1132.22 990.116 1132.15L989.416 1144.27C994.715 1149.22 995.6 1153.04 991.015 1157.22 986.16 1161.65 971.725 1161.34 968.21 1156.46 964.048 1150.7 968.778 1148.04 973.224 1144.84ZM980.63 1161 987.421 1153.3C984.766 1151.15 982.368 1148.31 979.335 1147.18 978.159 1146.74 973.634 1150.85 973.945 1151.69 974.982 1154.57 977.485 1156.9 980.63 1161ZM980.465 1129.49 975.167 1135.48C977.459 1137.35 979.646 1139.4 982.183 1140.85 982.506 1141.04 985.948 1137.7 985.637 1136.69 984.944 1134.41 982.816 1132.57 980.465 1129.49ZM1016.75 1147.68C1014.85 1148.47 1013.02 1149.62 1011.05 1149.97 1006.08 1150.84 1001.1 1150.42 999.339 1144.79 997.635 1139.33 998.804 1134.37 1004.59 1131.46 1010.54 1128.47 1019.2 1129.8 1022.74 1134.36 1026.8 1139.6 1025.98 1149.42 1021.03 1154.86 1015.9 1160.51 1008.05 1161.72 999.386 1157.53 1004.05 1157.31 1008.12 1158.07 1011.24 1156.69 1014.14 1155.41 1016.05 1151.84 1018.39 1149.27L1016.75 1147.68ZM1003.96 1138.2C1007.26 1141.75 1008.98 1144.93 1011.44 1145.7 1012.76 1146.12 1017.29 1141.98 1017 1140.56 1016.42 1137.6 1013.6 1135.07 1011.71 1132.37L1003.96 1138.2ZM1040.07 1144.12C1043.42 1138.63 1048.73 1138.63 1052.93 1141.49 1055.48 1143.22 1057.84 1148.58 1056.95 1151.16 1055.75 1154.66 1051.81 1158.5 1048.23 1159.63 1040.36 1162.12 1034.19 1158.93 1031.75 1152.86 1029.04 1146.11 1031.64 1137.53 1037.71 1133.18 1043.69 1128.9 1050.82 1128.85 1055.74 1133.05 1042.06 1132.51 1037.46 1135.72 1040.35 1143.84 1039.8 1146.1 1038.25 1148.74 1038.93 1150.54 1040 1153.39 1042.56 1155.66 1044.5 1158.18 1046.24 1156.8 1049.52 1155.29 1049.41 1154.06 1049.07 1150.65 1047.92 1147.38 1046.05 1144.51 1045.41 1143.51 1042.14 1144.2 1040.07 1144.12ZM922.884 750.858C920.817 747.351 918.353 744.022 916.741 740.316 910.339 725.599 904.235 710.758 897.933 696.008 896.703 693.134 894.86 690.531 893.638 687.658 892.819 685.73 892.601 683.543 892.112 681.476 894.299 680.961 896.855 679.501 898.573 680.174 900.608 680.98 903.39 683.695 903.297 685.458 902.253 707.342 914.97 724.133 923.743 742.397 924.82 744.636 925.322 747.16 926.089 749.551 925.018 749.98 923.948 750.423 922.884 750.858ZM1198.76 857.252C1201.06 868.481 1204.25 870.113 1212.3 864.2 1212.74 857.859 1199.85 856.624 1205.59 847.535 1211.97 850.613 1211.78 862.371 1222.63 858.79L1219.59 850.904C1226.42 851.617 1228.8 855.706 1230 860.349 1230.12 860.825 1224.98 862.668 1221.03 864.431 1221.3 865.35 1222.37 867.595 1222.54 869.914 1222.66 871.519 1221.55 873.21 1221 874.868 1219.51 874.293 1216.9 873.956 1216.72 873.092 1215.59 867.979 1212.1 869.069 1208.71 869.498 1207.41 869.663 1206.02 869.993 1204.79 869.696 1201.6 868.923 1196.93 868.739 1195.75 866.671 1194.4 864.3 1196.17 860.152 1196.6 856.769L1198.76 857.252ZM883.167 763.422C882.229 761.474 880.941 759.604 880.406 757.55 877.77 747.43 875.583 737.186 872.683 727.145 871.785 724.047 868.706 721.636 867.431 718.571 866.605 716.59 867.226 713.994 867.193 711.675 869.168 712.587 872.201 712.996 872.914 714.503 875.128 719.179 876.534 724.252 878.133 729.213 880.703 737.212 883.372 745.198 885.579 753.303 886.391 756.301 885.995 759.618 886.154 762.795L883.167 763.422ZM939.704 1133.61 951.727 1129.95C955.473 1139.7 948.352 1150.79 956.662 1159.43L940.008 1159.43C947.156 1154.62 947.579 1138.62 939.704 1133.61ZM1103.22 737.873C1107.17 742.833 1111.6 747.51 1114.78 752.92 1115.76 754.577 1113.32 758.237 1112.45 760.978 1109.79 760.034 1105.51 759.776 1104.76 758.012 1102.3 752.219 1101.12 745.878 1099.44 739.748L1103.22 737.873ZM895.957 737.826C890.844 728.473 886.306 720.381 882.064 712.131 881.622 711.266 882.718 708.511 883.477 708.34 885.281 707.937 887.733 707.937 889.186 708.888 893.87 711.946 898.613 730.442 895.957 737.826Z" fill="#B92518" fill-rule="evenodd"/><path d="M782.419 796C778.639 808.854 787.097 823.215 770.385 830.098 767.752 825.025 774.257 813.783 760 816.206 764.672 806.543 769.441 798.913 782.419 796ZM1172.2 1128.41C1177.13 1123.31 1180.84 1124.57 1184.29 1127.71 1187.59 1130.71 1190.09 1134.02 1185.47 1139.28L1172.2 1128.41ZM981.215 1161C978.075 1156.9 975.574 1154.56 974.539 1151.69 974.235 1150.85 978.755 1146.74 979.922 1147.17 982.95 1148.31 985.346 1151.14 987.997 1153.3L981.215 1161ZM981.051 1129.48C983.399 1132.57 985.524 1134.41 986.216 1136.68 986.52 1137.7 983.089 1141.04 982.766 1140.85 980.239 1139.4 978.055 1137.35 975.759 1135.48L981.051 1129.48ZM1004.51 1138.2 1012.25 1132.36C1014.14 1135.07 1016.96 1137.6 1017.54 1140.56 1017.83 1141.98 1013.3 1146.11 1011.99 1145.69 1009.53 1144.93 1007.81 1141.74 1004.51 1138.2ZM1040.58 1144.12C1042.65 1144.2 1045.92 1143.51 1046.56 1144.51 1048.36 1147.31 1049.65 1150.77 1049.92 1154.06 1050.02 1155.29 1046.74 1156.8 1045.01 1158.18 1043.08 1155.66 1040.52 1153.38 1039.45 1150.54 1038.76 1148.75 1040.31 1146.1 1040.87 1143.84L1040.58 1144.12Z" fill="#FFFFFF" fill-rule="evenodd"/></g></svg>