<?xml version="1.0" standalone="no"?><!DOCTYPE svg PUBLIC "-//W3C//DTD SVG 1.1//EN" "http://www.w3.org/Graphics/SVG/1.1/DTD/svg11.dtd"><svg t="1686192631905" class="icon" viewBox="0 0 1024 1024" version="1.1" xmlns="http://www.w3.org/2000/svg" p-id="5512" xmlns:xlink="http://www.w3.org/1999/xlink" width="200" height="200"><path d="M512 928C282.56 928 96 741.44 96 512S282.56 96 512 96s416 186.56 416 416-186.56 416-416 416z m0-768C317.76 160 160 317.76 160 512s157.76 352 352 352 352-157.76 352-352S706.24 160 512 160z" fill="#0a0b12" p-id="5513"></path><path d="M480.96 697.6c-8.32 0-16.32-3.2-22.72-9.28l-155.84-155.84a31.872 31.872 0 1 1 45.12-45.12l133.76 133.76 229.76-221.12a31.872 31.872 0 1 1 44.16 46.08l-252.48 242.88c-6.08 5.44-14.08 8.64-21.76 8.64z" fill="#0a0b12" p-id="5514"></path></svg>